<?xml version="1.0" standalone="no"?>
<!DOCTYPE svg PUBLIC "-//W3C//DTD SVG 20010904//EN"
 "http://www.w3.org/TR/2001/REC-SVG-20010904/DTD/svg10.dtd">
<svg version="1.0" xmlns="http://www.w3.org/2000/svg"
 width="512.000000pt" height="512.000000pt" viewBox="0 0 512.000000 512.000000"
 preserveAspectRatio="xMidYMid meet">
<metadata>
Created by potrace 1.11, written by Peter Selinger 2001-2013
</metadata>
<g transform="translate(0.000000,512.000000) scale(0.100000,-0.100000)"
fill="#000000" stroke="none">
<path d="M840 5110 c0 -6 -9 -19 -19 -29 -11 -11 -24 -29 -31 -40 -6 -12 -16
-20 -22 -18 -6 1 -17 -8 -23 -21 -7 -13 -22 -32 -34 -43 -17 -16 -29 -61 -18
-72 1 -1 -8 -13 -20 -27 -13 -13 -23 -32 -23 -41 0 -10 -5 -19 -10 -21 -6 -2
-12 -14 -14 -28 -4 -35 -28 -100 -38 -100 -4 0 -8 -9 -8 -20 0 -11 -4 -20 -10
-20 -5 0 -20 -17 -33 -37 -40 -65 -85 -203 -66 -203 5 0 9 9 9 19 0 11 5 23
10 26 17 10 11 -23 -10 -62 -11 -21 -20 -55 -19 -78 l1 -40 15 55 c17 64 33
87 33 48 0 -16 12 -38 30 -57 26 -26 29 -34 20 -51 -6 -11 -10 -42 -9 -68 1
-26 -2 -56 -6 -67 l-7 -20 17 20 c17 19 17 17 12 -40 -2 -33 -1 -71 3 -85 7
-23 8 -21 15 18 4 23 12 45 16 48 15 9 10 -42 -10 -114 -20 -73 -21 -112 -4
-133 23 -29 35 -89 24 -119 -6 -19 -6 -30 0 -30 5 0 7 -16 5 -35 -3 -23 0 -34
7 -32 8 1 11 -9 9 -28 -2 -21 0 -26 6 -16 6 8 12 9 16 3 3 -6 1 -14 -5 -17 -6
-4 -8 -17 -6 -29 3 -11 2 -30 -2 -41 -5 -11 -2 -34 6 -52 7 -18 10 -33 5 -33
-4 0 -8 -9 -8 -20 0 -11 3 -20 7 -20 3 0 6 -21 7 -46 0 -25 5 -51 11 -57 6 -6
11 -29 11 -52 0 -23 7 -50 15 -61 8 -10 15 -27 15 -37 0 -10 5 -15 10 -12 6 3
10 1 10 -4 0 -6 4 -11 9 -11 13 0 -1 117 -17 145 -4 6 -7 15 -8 20 -1 6 -6 35
-12 65 -31 152 -39 408 -18 520 9 47 20 86 26 88 5 2 10 12 10 22 0 10 11 27
25 38 30 24 31 32 4 32 -12 0 -17 4 -14 11 4 6 13 8 20 5 7 -2 18 6 25 19 7
14 17 22 22 19 4 -3 8 3 8 13 0 14 2 15 9 4 7 -11 11 -9 20 8 7 11 17 21 24
21 7 0 6 -4 -3 -10 -11 -7 -12 -12 -4 -20 8 -8 14 -7 24 5 13 15 32 21 28 8
-4 -12 31 -58 38 -50 4 4 1 13 -6 22 -10 12 -10 18 1 33 20 24 32 32 45 28 6
-2 33 9 59 24 48 28 49 29 22 35 -15 4 -27 14 -28 24 0 12 -2 11 -8 -4 -5 -11
-7 -23 -4 -27 2 -5 -3 -8 -11 -8 -9 0 -16 -7 -16 -15 0 -8 -4 -15 -9 -15 -20
0 -5 64 22 91 29 30 67 47 67 30 0 -6 9 -15 21 -21 18 -10 19 -9 11 7 -5 10
-7 24 -5 31 3 7 0 19 -6 26 -8 10 -8 16 3 25 12 10 13 9 9 -9 -4 -16 -2 -19
11 -14 10 4 15 12 12 19 -6 17 10 39 23 31 6 -4 9 -12 6 -17 -4 -5 6 -9 22 -9
l28 0 -30 25 c-16 13 -25 25 -20 26 6 0 21 2 35 2 33 2 39 34 8 40 l-23 4 23
2 c12 0 22 6 22 12 0 5 4 8 9 4 6 -3 14 2 19 12 9 15 11 15 26 0 17 -16 46
-13 46 5 0 6 -8 17 -17 25 -16 13 -16 14 9 9 19 -5 30 -1 37 11 6 10 11 12 11
6 0 -7 7 -13 15 -13 9 0 12 -6 8 -17 -6 -15 -5 -16 8 -3 9 8 14 24 11 37 -3
14 1 23 8 23 7 0 10 -7 6 -15 -6 -18 5 -20 22 -3 9 9 7 14 -6 24 -9 7 -14 16
-10 20 4 4 14 2 21 -5 18 -14 76 8 70 27 -3 7 4 12 19 12 40 0 68 12 68 29 1
14 2 14 11 -1 14 -25 69 1 69 32 0 17 28 42 32 29 5 -15 38 1 38 18 0 13 3 13
15 3 13 -10 15 -9 15 10 0 15 5 20 14 17 7 -3 19 0 26 6 10 10 12 7 7 -10 -3
-13 -2 -23 3 -23 13 0 60 27 56 31 -3 2 15 4 40 3 32 -1 47 3 54 15 8 13 11
13 18 3 7 -11 18 -11 51 -2 28 7 47 8 60 1 10 -6 21 -7 25 -4 3 3 6 -2 6 -13
0 -17 2 -16 23 6 25 29 53 33 49 8 -1 -9 2 -19 8 -23 5 -3 10 -2 10 3 0 4 16
8 35 8 19 -1 35 -5 35 -10 0 -4 7 -3 15 4 8 7 27 14 42 15 41 5 73 16 73 26 0
5 10 5 22 0 17 -6 26 -4 35 8 8 10 15 12 20 6 5 -5 37 -10 71 -10 35 0 66 -3
69 -7 2 -5 19 -8 36 -8 24 0 28 3 17 10 -12 8 -11 10 8 10 12 0 25 -7 28 -15
5 -11 10 -12 18 -5 12 9 93 6 103 -4 7 -7 33 20 33 33 0 6 -9 11 -20 11 -13 0
-18 5 -13 15 3 9 2 15 -3 14 -21 -4 -35 2 -29 11 3 6 -1 7 -9 4 -19 -7 -21 7
-4 24 9 9 9 12 0 12 -7 0 -12 10 -12 22 0 21 0 21 -15 2 -13 -18 -14 -18 -8 5
5 20 3 23 -11 18 -11 -4 -19 -1 -22 11 -3 9 -10 25 -15 34 -5 10 -9 25 -9 34
0 13 -3 14 -15 4 -12 -10 -16 -9 -22 6 -9 25 -26 36 -34 22 -5 -7 -16 -7 -35
-1 -21 7 -31 18 -34 39 -5 27 -6 28 -18 9 -11 -19 -11 -19 -12 3 0 13 -4 21
-9 18 -5 -3 -14 1 -21 9 -11 13 -118 15 -851 15 -540 0 -839 -4 -839 -10z
m-25 -130 c-3 -5 -11 -10 -16 -10 -6 0 -7 5 -4 10 3 6 11 10 16 10 6 0 7 -4 4
-10z m-35 -24 c0 -16 -18 -31 -27 -22 -8 8 5 36 17 36 5 0 10 -6 10 -14z
m1980 -176 c0 -5 -4 -10 -10 -10 -5 0 -10 5 -10 10 0 6 5 10 10 10 6 0 10 -4
10 -10z m-1390 -210 c0 -5 -5 -10 -11 -10 -5 0 -7 5 -4 10 3 6 8 10 11 10 2 0
4 -4 4 -10z m17 -72 c-3 -7 -5 -2 -5 12 0 14 2 19 5 13 2 -7 2 -19 0 -25z
m-810 -110 c-3 -7 -5 -2 -5 12 0 14 2 19 5 13 2 -7 2 -19 0 -25z m376 -235
c-7 -2 -19 -2 -25 0 -7 3 -2 5 12 5 14 0 19 -2 13 -5z m107 3 c0 -3 -4 -8 -10
-11 -5 -3 -10 -1 -10 4 0 6 5 11 10 11 6 0 10 -2 10 -4z m-230 -66 c0 -5 -2
-10 -4 -10 -3 0 -8 5 -11 10 -3 6 -1 10 4 10 6 0 11 -4 11 -10z m-173 -632
c-3 -8 -6 -5 -6 6 -1 11 2 17 5 13 3 -3 4 -12 1 -19z"/>
<path d="M1810 4660 c0 -5 5 -10 10 -10 6 0 10 5 10 10 0 6 -4 10 -10 10 -5 0
-10 -4 -10 -10z"/>
<path d="M2968 4616 c-20 -15 -14 -26 14 -26 10 0 18 6 18 14 0 22 -13 26 -32
12z"/>
<path d="M1948 4603 c7 -3 16 -2 19 1 4 3 -2 6 -13 5 -11 0 -14 -3 -6 -6z"/>
<path d="M3026 4591 c-17 -6 -17 -8 -4 -14 9 -3 24 1 35 8 14 11 15 14 3 14
-8 0 -24 -4 -34 -8z"/>
<path d="M3051 4534 c-14 -33 -13 -34 35 -37 32 -2 39 1 38 15 -1 10 8 20 20
24 21 7 21 7 1 15 -11 4 -34 8 -51 8 -24 1 -33 -5 -43 -25z m49 -14 c-20 -13
-40 -13 -40 0 0 6 12 10 28 10 21 0 24 -2 12 -10z"/>
<path d="M3094 4472 c3 -6 -4 -12 -16 -14 -20 -4 -18 -6 12 -15 19 -6 29 -12
21 -12 -20 -1 17 -41 37 -41 9 0 23 -7 33 -16 18 -16 99 -27 99 -13 0 7 -39
22 -52 20 -5 -1 -8 4 -8 9 0 6 -6 10 -13 10 -19 0 -49 38 -34 44 17 6 -14 27
-31 21 -7 -3 -23 0 -34 6 -13 7 -18 7 -14 1z"/>
<path d="M1390 4430 c-13 -8 -12 -10 3 -10 9 0 17 5 17 10 0 12 -1 12 -20 0z"/>
<path d="M1580 4420 c0 -5 5 -10 10 -10 6 0 10 5 10 10 0 6 -4 10 -10 10 -5 0
-10 -4 -10 -10z"/>
<path d="M1280 4380 c6 -11 15 -20 20 -20 14 0 12 9 -4 26 -21 20 -28 17 -16
-6z"/>
<path d="M3205 4310 c3 -5 8 -10 11 -10 2 0 4 5 4 10 0 6 -5 10 -11 10 -5 0
-7 -4 -4 -10z"/>
<path d="M3322 4275 c24 -28 61 -37 38 -10 -7 8 -9 15 -4 16 12 1 -28 17 -43
18 -8 1 -4 -10 9 -24z"/>
<path d="M3178 4264 c22 -16 31 -54 13 -54 -13 0 -7 -46 9 -65 7 -8 10 -18 7
-22 -10 -9 25 -32 51 -33 12 0 33 -7 46 -15 19 -12 25 -13 34 -3 12 16 -21 63
-38 53 -7 -4 -7 2 0 20 8 22 4 31 -38 75 -28 29 -59 52 -77 55 l-30 6 23 -17z"/>
<path d="M1180 4190 c0 -5 5 -10 11 -10 5 0 7 5 4 10 -3 6 -8 10 -11 10 -2 0
-4 -4 -4 -10z"/>
<path d="M1130 4181 c0 -5 -8 -12 -17 -14 -14 -4 -12 -5 5 -6 13 -1 22 5 22
14 0 8 -2 15 -5 15 -3 0 -5 -4 -5 -9z"/>
<path d="M3403 4095 c0 -8 3 -13 5 -10 3 3 10 -5 16 -17 6 -12 18 -23 26 -25
10 -3 9 -1 -2 7 -10 6 -18 17 -18 24 0 8 -6 19 -13 25 -10 8 -14 7 -14 -4z"/>
<path d="M956 4072 c-8 -24 -3 -37 12 -31 4 2 5 15 2 29 l-6 25 -8 -23z"/>
<path d="M3220 4055 c-10 -12 -9 -16 6 -22 23 -9 104 -94 104 -109 0 -16 31
-27 43 -15 13 13 -1 51 -17 45 -8 -3 -22 13 -37 41 -13 25 -28 45 -32 45 -5 0
-6 4 -3 9 3 5 -4 11 -17 15 -31 8 -33 8 -47 -9z"/>
<path d="M3340 4060 c0 -5 5 -10 11 -10 5 0 7 5 4 10 -3 6 -8 10 -11 10 -2 0
-4 -4 -4 -10z"/>
<path d="M880 4045 c-7 -9 -11 -18 -8 -20 3 -3 11 1 18 10 7 9 11 18 8 20 -3
3 -11 -1 -18 -10z"/>
<path d="M3331 4024 c9 -9 25 -14 35 -12 14 3 10 7 -16 16 -32 12 -34 11 -19
-4z"/>
<path d="M900 4020 c0 -5 5 -10 10 -10 6 0 10 5 10 10 0 6 -4 10 -10 10 -5 0
-10 -4 -10 -10z"/>
<path d="M3394 3980 c-1 -16 5 -31 13 -34 22 -9 28 24 7 45 -19 18 -19 18 -20
-11z"/>
<path d="M3465 4000 c3 -5 8 -10 11 -10 2 0 4 5 4 10 0 6 -5 10 -11 10 -5 0
-7 -4 -4 -10z"/>
<path d="M971 3984 c0 -11 3 -14 6 -6 3 7 2 16 -1 19 -3 4 -6 -2 -5 -13z"/>
<path d="M3212 3946 c7 -23 17 -35 26 -34 8 2 17 -3 19 -9 3 -7 -1 -13 -7 -13
-11 0 12 -21 92 -83 22 -17 22 -17 1 -7 -12 5 -28 7 -37 4 -13 -5 -13 -11 5
-45 11 -22 26 -42 34 -46 8 -3 15 -10 15 -17 0 -19 14 -33 39 -41 20 -6 23 -4
18 9 -4 9 -2 16 3 16 6 0 10 7 10 15 0 8 -4 15 -10 15 -5 0 -10 5 -10 10 0 6
8 5 19 -2 11 -7 18 -15 15 -19 -2 -4 5 -5 16 -2 28 7 25 19 -9 33 -16 6 -31
20 -34 31 -3 10 -13 19 -22 19 -12 0 -15 5 -11 16 3 9 6 18 6 20 0 2 11 -3 25
-12 14 -9 25 -25 25 -35 0 -20 18 -35 28 -24 4 4 1 10 -6 12 -6 3 -9 9 -6 14
7 12 -24 49 -40 49 -6 0 -30 21 -54 45 -24 25 -48 45 -53 45 -5 0 -9 6 -9 13
0 20 -31 44 -67 52 l-32 6 11 -35z m168 -188 c0 -6 -6 -5 -15 2 -8 7 -15 14
-15 16 0 2 7 1 15 -2 8 -4 15 -11 15 -16z"/>
<path d="M925 3949 c-12 -19 5 -23 22 -6 16 16 16 17 1 17 -9 0 -20 -5 -23
-11z"/>
<path d="M980 3950 c0 -5 5 -10 10 -10 6 0 10 5 10 10 0 6 -4 10 -10 10 -5 0
-10 -4 -10 -10z"/>
<path d="M3420 3933 c-18 -4 -45 -43 -30 -43 5 0 10 5 10 10 0 23 17 7 58 -53
23 -35 51 -69 62 -77 11 -8 20 -19 20 -25 0 -20 27 -48 38 -41 7 4 1 21 -17
49 -16 23 -39 61 -51 85 -28 54 -71 99 -90 95z"/>
<path d="M957 3903 c-11 -10 -8 -25 3 -18 6 3 10 -1 10 -9 0 -21 13 -20 33 2
22 24 22 38 0 21 -13 -11 -17 -11 -20 -1 -5 13 -16 16 -26 5z"/>
<path d="M1086 3874 c-4 -9 -4 -19 -2 -21 8 -8 26 8 26 23 0 19 -16 18 -24 -2z"/>
<path d="M887 3814 c-7 -42 22 -89 61 -97 30 -6 28 9 -2 17 -13 3 -31 17 -41
32 -19 29 -10 49 10 21 11 -16 13 -14 17 17 3 24 -1 37 -10 41 -25 9 -29 5
-35 -31z"/>
<path d="M1040 3840 c0 -5 5 -10 11 -10 5 0 7 5 4 10 -3 6 -8 10 -11 10 -2 0
-4 -4 -4 -10z"/>
<path d="M838 3833 c7 -3 16 -2 19 1 4 3 -2 6 -13 5 -11 0 -14 -3 -6 -6z"/>
<path d="M750 3782 c0 -12 7 -25 15 -29 24 -9 25 0 5 27 l-20 25 0 -23z"/>
<path d="M1060 3781 c0 -6 5 -13 10 -16 6 -3 10 1 10 9 0 9 -4 16 -10 16 -5 0
-10 -4 -10 -9z"/>
<path d="M813 3760 c-8 -12 -9 -21 -3 -25 6 -4 13 1 16 9 3 9 16 16 28 16 17
0 18 2 6 10 -22 14 -34 12 -47 -10z"/>
<path d="M3497 3750 c3 -11 12 -20 21 -20 13 0 12 3 -3 20 -10 11 -19 20 -21
20 -1 0 0 -9 3 -20z"/>
<path d="M856 3734 c-18 -17 -22 -59 -5 -49 6 4 8 14 5 22 -5 11 -1 14 13 10
14 -3 17 0 14 14 -6 23 -7 23 -27 3z"/>
<path d="M1020 3741 c0 -6 5 -13 10 -16 6 -3 10 1 10 9 0 9 -4 16 -10 16 -5 0
-10 -4 -10 -9z"/>
<path d="M3517 3711 c-16 -6 -16 -9 7 -30 24 -23 46 -22 46 2 0 7 -4 6 -10 -3
-9 -15 -10 -15 -22 26 -2 6 -11 8 -21 5z"/>
<path d="M900 3670 c0 -5 4 -10 9 -10 6 0 13 5 16 10 3 6 -1 10 -9 10 -9 0
-16 -4 -16 -10z"/>
<path d="M860 3640 c0 -16 -4 -30 -10 -30 -5 0 -7 -7 -4 -15 8 -20 24 -19 24
1 0 12 7 15 25 12 17 -4 25 -1 25 8 0 13 -12 18 -32 15 -5 0 -8 8 -8 19 0 11
-4 20 -10 20 -5 0 -10 -13 -10 -30z"/>
<path d="M970 3646 c0 -8 5 -18 10 -21 6 -3 10 3 10 14 0 12 -4 21 -10 21 -5
0 -10 -6 -10 -14z"/>
<path d="M3380 3640 c0 -5 4 -10 10 -10 5 0 12 -11 16 -25 3 -14 10 -25 14
-25 4 0 13 -14 19 -31 9 -26 8 -30 -4 -25 -12 4 -13 2 -2 -14 15 -25 25 -26
23 -2 -1 12 6 17 21 16 24 -1 20 9 -19 49 -10 10 -16 22 -13 27 3 5 -7 18 -21
29 -29 23 -44 27 -44 11z"/>
<path d="M810 3621 c-7 -15 -7 -21 0 -21 12 0 25 28 17 36 -3 3 -10 -4 -17
-15z"/>
<path d="M743 3615 c-16 -18 -17 -35 -1 -35 6 0 8 3 5 7 -4 3 0 15 10 25 9 10
12 18 7 18 -5 -1 -15 -7 -21 -15z"/>
<path d="M3510 3611 c6 -12 15 -21 20 -21 18 0 11 19 -11 30 -19 11 -20 10 -9
-9z"/>
<path d="M1050 3589 c0 -5 5 -7 10 -4 6 3 10 8 10 11 0 2 -4 4 -10 4 -5 0 -10
-5 -10 -11z"/>
<path d="M770 3570 c0 -10 9 -24 21 -30 19 -11 20 -10 9 9 -6 12 -8 26 -5 31
3 6 -1 10 -9 10 -9 0 -16 -9 -16 -20z"/>
<path d="M921 3574 c0 -11 3 -14 6 -6 3 7 2 16 -1 19 -3 4 -6 -2 -5 -13z"/>
<path d="M1000 3576 c0 -2 7 -9 15 -16 12 -10 15 -10 15 4 0 9 -7 16 -15 16
-8 0 -15 -2 -15 -4z"/>
<path d="M884 3559 c-3 -6 -1 -16 5 -22 8 -8 11 -5 11 11 0 24 -5 28 -16 11z"/>
<path d="M951 3553 c-1 -13 -7 -23 -15 -23 -9 0 -12 -7 -9 -20 6 -23 31 -27
39 -5 3 8 1 27 -4 42 -9 25 -10 26 -11 6z"/>
<path d="M772 3518 c3 -7 18 -14 34 -16 28 -2 28 -2 10 13 -24 18 -49 20 -44
3z"/>
<path d="M3565 3520 c3 -5 8 -10 11 -10 2 0 4 5 4 10 0 6 -5 10 -11 10 -5 0
-7 -4 -4 -10z"/>
<path d="M3550 3480 c0 -5 7 -10 15 -10 8 0 15 5 15 10 0 6 -7 10 -15 10 -8 0
-15 -4 -15 -10z"/>
<path d="M1025 3460 c-19 -8 -19 -9 3 -9 15 -1 21 -5 16 -13 -4 -7 -3 -8 4 -4
8 5 7 39 -2 35 0 0 -10 -4 -21 -9z"/>
<path d="M2714 3395 c-3 -8 -22 -17 -41 -21 -23 -4 -33 -11 -29 -20 4 -11 -6
-14 -42 -16 -64 -2 -73 -3 -105 -16 -15 -6 -45 -13 -67 -14 -22 -2 -40 -7 -40
-13 0 -10 -73 -47 -100 -50 -8 -1 -21 -3 -27 -4 -7 0 -13 -8 -13 -17 0 -8 -4
-13 -8 -10 -4 2 -19 -4 -32 -15 -14 -10 -19 -19 -12 -19 14 0 17 -50 2 -50 -5
0 -7 -7 -4 -15 4 -8 10 -13 15 -10 4 3 13 -4 19 -16 9 -15 17 -19 33 -14 12 4
31 8 42 10 11 2 22 4 25 4 3 1 -2 6 -10 11 -11 7 -2 10 33 10 26 0 47 -4 47
-10 0 -5 5 -10 11 -10 5 0 7 5 3 12 -4 7 -3 8 4 4 10 -6 47 9 123 49 11 5 17
16 14 23 -3 7 0 10 5 7 6 -3 10 -1 10 4 0 6 6 11 13 11 6 0 23 9 37 20 14 11
29 20 34 20 6 0 1 -7 -10 -16 -19 -15 -19 -15 1 -10 11 2 46 10 78 16 31 6 55
15 53 19 -3 4 19 6 48 3 33 -3 56 0 60 7 4 6 0 11 -11 12 -39 2 -63 6 -70 12
-3 4 0 7 9 7 8 0 20 12 27 26 9 22 16 25 40 19 18 -4 32 -2 37 6 5 9 1 11 -14
7 -12 -4 -22 -2 -22 3 0 5 5 9 10 9 6 0 10 4 10 9 0 15 -106 11 -126 -4 -13
-9 -22 -10 -36 -2 -16 10 -16 13 -1 29 15 17 15 18 -1 18 -9 0 -19 -7 -22 -15z
m105 -58 c0 -8 -2 -8 -6 1 -4 10 -8 10 -19 1 -9 -7 -14 -8 -14 -1 0 12 21 22
33 15 4 -2 7 -10 6 -16z m-102 7 c-3 -3 -12 -4 -19 -1 -8 3 -5 6 6 6 11 1 17
-2 13 -5z m-443 -239 c-4 -8 -14 -15 -23 -15 -14 1 -13 3 3 15 25 19 27 19 20
0z"/>
<path d="M3490 3400 c0 -5 6 -10 14 -10 8 0 16 -7 20 -15 3 -8 10 -15 16 -15
15 0 -22 49 -37 50 -7 0 -13 -4 -13 -10z"/>
<path d="M3690 3401 c0 -5 5 -13 10 -16 6 -3 10 -2 10 4 0 5 -4 13 -10 16 -5
3 -10 2 -10 -4z"/>
<path d="M3632 3368 c3 -7 13 -15 24 -17 16 -3 17 -1 5 13 -16 19 -34 21 -29
4z"/>
<path d="M2610 3360 c0 -5 5 -10 11 -10 5 0 7 5 4 10 -3 6 -8 10 -11 10 -2 0
-4 -4 -4 -10z"/>
<path d="M1060 3300 c0 -5 5 -10 10 -10 6 0 10 5 10 10 0 6 -4 10 -10 10 -5 0
-10 -4 -10 -10z"/>
<path d="M3577 3299 c7 -7 15 -10 18 -7 3 3 -2 9 -12 12 -14 6 -15 5 -6 -5z"/>
<path d="M3615 3260 c3 -5 8 -10 11 -10 2 0 4 5 4 10 0 6 -5 10 -11 10 -5 0
-7 -4 -4 -10z"/>
<path d="M3584 3234 c3 -8 6 -18 6 -20 0 -2 4 -4 8 -4 15 0 9 29 -6 35 -10 4
-12 0 -8 -11z"/>
<path d="M896 3225 c4 -8 10 -15 15 -15 4 0 6 7 3 15 -4 8 -10 15 -15 15 -4 0
-6 -7 -3 -15z"/>
<path d="M2130 3124 c0 -8 5 -12 10 -9 6 4 8 11 5 16 -9 14 -15 11 -15 -7z"/>
<path d="M2124 3089 c-3 -6 -1 -16 5 -22 8 -8 11 -5 11 11 0 24 -5 28 -16 11z"/>
<path d="M2480 3071 c-19 -4 -54 -7 -78 -6 -36 1 -43 -2 -39 -15 4 -17 -30
-47 -41 -36 -10 10 -37 -38 -34 -61 2 -13 -4 -37 -12 -55 -18 -36 -20 -58 -6
-58 6 0 10 -11 10 -24 0 -13 7 -29 15 -36 12 -10 15 -7 21 17 4 15 12 34 18
42 9 11 12 4 16 -35 l5 -49 63 -3 c46 -2 62 -7 62 -17 0 -8 5 -15 10 -15 6 0
10 -7 10 -15 0 -8 -4 -15 -10 -15 -5 0 -10 5 -10 11 0 5 -5 7 -10 4 -6 -4 -8
-11 -5 -16 4 -5 -9 -9 -28 -9 -31 0 -35 -3 -39 -29 -3 -21 0 -31 11 -34 9 -3
24 -8 34 -12 12 -5 17 -2 17 9 0 11 9 16 30 16 20 0 30 -5 30 -15 0 -8 5 -15
10 -15 6 0 10 6 10 14 0 24 19 29 45 12 22 -15 25 -15 25 -1 0 8 3 14 8 14 36
-6 43 18 12 41 -23 17 -27 35 -5 26 8 -3 15 -1 15 4 0 5 10 12 23 16 21 7 21
7 2 15 -11 4 -14 8 -7 8 6 1 12 9 12 19 0 14 2 15 10 2 5 -8 10 -10 10 -4 0
16 38 25 44 10 2 -6 5 1 5 16 1 17 9 32 22 38 16 9 20 8 18 -2 -3 -24 1 -38
11 -38 6 0 10 6 9 13 -5 38 2 47 32 47 27 0 30 2 19 15 -13 16 -5 20 29 16 7
-2 10 2 6 8 -4 7 4 11 19 11 14 0 26 5 26 10 0 6 12 10 28 9 15 0 36 2 47 5
11 2 23 5 28 5 20 2 2 20 -40 42 -27 13 -50 27 -53 31 -3 3 -23 9 -45 11 -22
2 -47 7 -55 11 -8 3 -33 13 -55 21 l-40 15 48 -3 c26 -1 47 1 47 4 0 17 -283
25 -360 10z m79 -136 c7 -19 29 -50 49 -69 l36 -35 -26 -6 c-14 -4 -59 -5 -99
-3 l-73 3 -7 33 c-6 28 -2 37 27 65 30 28 56 44 74 46 4 1 12 -15 19 -34z
m289 -22 c-35 -34 -44 -26 -23 23 15 35 17 37 32 21 16 -16 16 -19 -9 -44z"/>
<path d="M1250 3049 c0 -5 5 -7 10 -4 6 3 10 8 10 11 0 2 -4 4 -10 4 -5 0 -10
-5 -10 -11z"/>
<path d="M2873 3049 c9 -6 26 -12 37 -14 20 -4 100 -45 110 -56 3 -3 13 -8 23
-12 27 -10 5 26 -25 40 -83 39 -198 73 -145 42z"/>
<path d="M3830 3016 c0 -8 -7 -17 -16 -20 -12 -4 -14 -15 -11 -43 6 -40 -17
-98 -33 -88 -6 4 -10 1 -10 -4 0 -6 5 -11 11 -11 5 0 8 -3 5 -8 -2 -4 2 -18
10 -32 8 -15 13 -19 14 -10 0 8 17 24 38 35 54 29 65 78 31 145 -24 49 -39 63
-39 36z"/>
<path d="M1256 3013 c-11 -12 -75 -19 -90 -11 -11 6 -22 6 -30 -1 -7 -6 -15
-8 -19 -5 -12 12 -83 11 -104 -2 -17 -10 -23 -11 -27 -1 -5 9 -7 9 -12 0 -3
-7 -11 -13 -18 -13 -7 0 -23 -11 -36 -25 -18 -20 -21 -28 -12 -37 17 -17 15
-38 -3 -38 -8 0 -15 -8 -16 -17 -4 -72 -3 -92 5 -118 11 -35 26 -51 46 -52 8
0 24 -4 34 -9 16 -6 18 -4 13 9 -8 22 25 57 54 57 15 0 19 5 15 15 -3 9 0 15
10 15 8 0 25 5 37 12 12 7 40 13 62 15 22 1 81 4 132 7 51 3 103 1 115 -4 13
-5 20 -10 16 -11 -18 -4 -24 -6 -53 -18 -75 -30 -196 -96 -225 -122 -17 -16
-33 -29 -36 -29 -8 0 -41 -37 -49 -56 -5 -10 -10 -44 -11 -75 -1 -55 -1 -57
31 -69 24 -9 32 -18 27 -29 -5 -13 -3 -13 12 2 36 35 52 38 76 12 13 -13 26
-22 30 -20 4 3 13 -2 20 -10 11 -14 15 -14 32 2 14 12 15 18 6 24 -7 4 -10 11
-6 14 3 4 16 -3 27 -14 23 -23 53 -18 86 16 13 13 20 14 23 5 2 -7 8 -10 13
-6 5 3 10 0 10 -5 1 -6 2 -17 3 -23 2 -20 -26 -37 -60 -38 -28 0 -32 -3 -30
-25 0 -16 6 -25 16 -24 8 1 24 -2 34 -6 13 -6 21 -4 24 3 2 7 11 12 20 12 14
0 15 -2 2 -10 -26 -16 -5 -19 35 -5 22 8 36 14 31 15 -17 0 15 28 39 33 17 3
25 0 25 -9 0 -8 6 -14 14 -14 8 0 21 -3 30 -6 11 -4 16 -1 16 10 0 9 3 16 6
16 9 0 39 -33 39 -43 0 -6 6 -12 13 -15 7 -2 10 2 6 12 -3 9 -1 16 5 16 6 0
11 -13 11 -30 0 -21 5 -30 16 -30 12 0 15 6 10 25 -5 18 -3 23 8 19 20 -8 68
56 54 73 -7 9 -7 13 0 13 10 0 10 39 -1 57 -3 5 0 36 8 69 9 41 10 63 3 71 -6
7 -8 27 -4 43 3 17 2 30 -3 30 -5 0 -11 21 -15 46 -6 44 -36 98 -50 89 -3 -3
-4 -2 -1 2 3 3 0 12 -6 20 -9 9 -8 13 0 13 6 0 11 5 11 10 0 6 -7 10 -15 10
-8 0 -15 5 -15 10 0 6 -5 10 -10 10 -6 0 -21 9 -33 21 -12 11 -30 18 -39 16
-10 -3 -23 2 -29 9 -7 8 -18 12 -26 10 -8 -3 -24 5 -36 18 -12 12 -34 26 -49
30 -15 3 -40 11 -55 18 -15 7 -44 13 -63 15 -19 1 -54 4 -77 6 -23 3 -44 2
-47 0z m352 -367 c3 -12 0 -16 -8 -11 -7 4 -16 1 -21 -6 -12 -19 -32 2 -23 25
9 22 48 17 52 -8z m140 -36 c20 -19 21 -57 1 -44 -8 5 -13 -12 -12 -44 1 -9
-3 -10 -12 -2 -10 8 -19 8 -34 -2 -12 -7 -21 -16 -21 -20 0 -5 -7 -8 -15 -8
-14 0 -35 29 -35 48 0 14 43 23 54 12 6 -6 19 -10 31 -10 16 0 20 6 20 33 0
17 -4 38 -8 45 -13 19 7 14 31 -8z m-478 -1 c0 -7 14 -25 31 -41 21 -20 28
-33 21 -40 -13 -13 -88 0 -107 18 -13 13 -12 19 7 45 22 29 48 39 48 18z m-10
-199 c-9 -6 -19 -5 -25 1 -6 6 -5 13 5 19 9 6 19 5 25 -1 6 -6 5 -13 -5 -19z
m437 -6 c-3 -3 -12 -4 -19 -1 -8 3 -5 6 6 6 11 1 17 -2 13 -5z m13 -35 c0 -6
-4 -7 -10 -4 -5 3 -10 11 -10 16 0 6 5 7 10 4 6 -3 10 -11 10 -16z"/>
<path d="M2828 2753 c7 -3 16 -2 19 1 4 3 -2 6 -13 5 -11 0 -14 -3 -6 -6z"/>
<path d="M2448 2733 c7 -3 16 -2 19 1 4 3 -2 6 -13 5 -11 0 -14 -3 -6 -6z"/>
<path d="M1810 2459 c0 -5 5 -7 10 -4 6 3 10 8 10 11 0 2 -4 4 -10 4 -5 0 -10
-5 -10 -11z"/>
<path d="M1285 2340 c3 -5 8 -10 11 -10 2 0 4 5 4 10 0 6 -5 10 -11 10 -5 0
-7 -4 -4 -10z"/>
<path d="M2710 2340 c0 -5 7 -10 15 -10 8 0 15 5 15 10 0 6 -7 10 -15 10 -8 0
-15 -4 -15 -10z"/>
<path d="M1323 2315 c-3 -9 -3 -18 -1 -21 3 -3 8 4 11 16 6 23 -1 27 -10 5z"/>
<path d="M1245 2310 c3 -5 13 -10 21 -10 8 0 12 5 9 10 -3 6 -13 10 -21 10 -8
0 -12 -4 -9 -10z"/>
<path d="M1543 2308 c2 -7 11 -11 18 -9 8 2 20 4 27 4 27 1 10 17 -19 17 -20
0 -29 -4 -26 -12z"/>
<path d="M1292 2290 c0 -14 2 -19 5 -12 2 6 2 18 0 25 -3 6 -5 1 -5 -13z"/>
<path d="M1353 2285 c-11 -8 -23 -11 -27 -8 -3 3 -6 3 -6 -2 0 -11 32 -34 48
-35 7 0 10 5 7 10 -4 6 -11 8 -16 5 -5 -4 -9 -1 -9 6 0 7 11 10 30 7 34 -5 40
6 12 21 -14 7 -25 6 -39 -4z"/>
<path d="M1260 2270 c0 -5 5 -10 10 -10 6 0 10 5 10 10 0 6 -4 10 -10 10 -5 0
-10 -4 -10 -10z"/>
<path d="M1290 2240 c0 -5 4 -10 9 -10 6 0 13 5 16 10 3 6 -1 10 -9 10 -9 0
-16 -4 -16 -10z"/>
<path d="M1245 2230 c3 -5 8 -10 11 -10 2 0 4 5 4 10 0 6 -5 10 -11 10 -5 0
-7 -4 -4 -10z"/>
<path d="M1215 2210 c-3 -5 -1 -10 4 -10 6 0 11 5 11 10 0 6 -2 10 -4 10 -3 0
-8 -4 -11 -10z"/>
<path d="M1757 2187 c-11 -29 -9 -43 4 -30 6 6 9 19 7 29 -3 18 -4 18 -11 1z"/>
<path d="M2596 2141 c-22 -25 -17 -52 12 -67 13 -6 23 -14 23 -18 -1 -16 13
-36 25 -36 7 0 11 -6 8 -14 -4 -11 0 -13 15 -9 26 7 27 -5 4 -23 -12 -9 -14
-13 -5 -14 8 0 11 -7 8 -18 -4 -12 0 -18 13 -19 14 -1 17 4 15 23 -1 13 2 24
7 24 5 0 9 -7 9 -15 0 -8 4 -15 10 -15 12 0 60 -48 60 -61 0 -11 85 -50 102
-46 6 1 14 -9 18 -23 5 -20 14 -26 45 -30 32 -4 40 -10 48 -35 12 -37 36 -67
49 -59 5 3 2 16 -6 30 -9 13 -16 26 -16 29 0 11 68 -46 74 -62 5 -13 4 -14 -9
-3 -10 8 -19 9 -27 2 -15 -11 -70 -13 -63 -2 2 4 -2 16 -11 26 -15 18 -15 18
-9 -2 7 -27 -6 -32 -72 -29 -34 2 -53 -1 -53 -8 0 -8 -4 -7 -12 1 -19 19 -30
14 -23 -10 4 -16 4 -19 -3 -9 -14 20 -34 3 -26 -22 6 -20 5 -21 -12 -7 -33 26
-49 43 -59 64 -6 12 -20 21 -33 20 -11 0 -19 3 -16 8 3 4 -4 8 -15 8 -19 0
-26 10 -22 33 0 4 -4 7 -10 7 -6 0 -9 -9 -6 -20 3 -13 0 -20 -9 -20 -19 0 -18
29 3 52 9 10 13 21 10 25 -8 7 -57 -16 -72 -35 -7 -9 -10 -5 -12 14 -1 28 -17
44 -45 44 -21 0 -97 -34 -123 -55 -19 -16 -20 -17 -1 -28 10 -7 33 -25 50 -40
31 -28 31 -28 6 -26 -44 4 -60 -1 -60 -16 0 -8 -9 -19 -20 -25 -11 -6 -19 -14
-17 -18 1 -4 -8 -21 -21 -37 l-23 -29 -25 32 c-14 18 -29 30 -34 27 -5 -3 -11
-1 -14 3 -3 5 -18 8 -33 6 -33 -3 -83 21 -83 41 0 10 -11 15 -32 15 -23 0 -29
3 -19 9 11 7 4 12 -24 20 -34 9 -41 8 -57 -9 -10 -11 -24 -17 -32 -14 -8 3
-15 -3 -18 -14 -4 -15 -14 -19 -44 -18 -35 2 -41 6 -58 40 -21 43 -26 160 -7
179 6 6 11 19 11 29 0 10 7 18 17 18 13 0 14 3 5 12 -19 19 -14 30 8 18 19
-10 20 -10 8 9 -7 12 -18 21 -24 21 -6 0 -19 9 -29 20 -24 27 -35 25 -35 -5 0
-14 -4 -25 -8 -25 -5 0 -15 -11 -22 -25 -9 -17 -17 -22 -25 -15 -8 6 -11 -1
-11 -26 0 -24 4 -33 13 -30 7 3 13 1 13 -4 0 -6 -4 -10 -10 -10 -11 0 -1 -62
12 -71 5 -3 4 -16 -1 -30 -7 -18 -10 -20 -10 -6 -1 24 -28 50 -42 41 -8 -5 -7
-10 5 -16 16 -9 23 -29 9 -27 -23 4 -43 -2 -38 -11 4 -6 11 -8 16 -5 9 6 13
-14 10 -52 -1 -13 3 -23 9 -23 5 0 10 -6 10 -14 0 -9 -7 -12 -20 -9 -16 4 -20
0 -20 -18 0 -13 -9 -30 -20 -37 -20 -12 -24 -7 -23 36 1 6 -9 12 -21 12 -15 0
-31 -14 -50 -41 -14 -23 -24 -44 -22 -47 8 -8 36 19 36 34 0 8 7 14 15 14 8 0
15 -7 15 -15 0 -8 5 -15 10 -15 7 0 7 -6 0 -19 -13 -26 -13 -31 5 -31 16 0 39
-36 31 -49 -3 -5 1 -11 9 -15 18 -6 20 -37 4 -53 -7 -7 -8 -19 -4 -30 5 -10 9
-20 9 -23 1 -3 7 -15 14 -27 8 -14 9 -30 3 -45 -6 -16 -5 -29 5 -42 9 -13 10
-24 3 -37 -6 -12 -6 -19 0 -19 5 0 11 6 13 12 3 7 7 2 10 -10 4 -12 2 -20 -3
-16 -5 3 -9 1 -9 -5 0 -5 3 -12 8 -14 9 -6 8 -64 -1 -74 -4 -3 0 -14 9 -24 10
-12 12 -19 4 -24 -14 -9 -51 37 -39 50 16 16 10 26 -11 15 -18 -10 -20 -8 -20
17 0 24 -5 29 -27 31 -15 1 -31 9 -36 17 -4 8 -19 15 -32 15 -20 0 -25 5 -25
25 0 26 -15 34 -23 13 -3 -7 -6 -4 -6 7 -1 11 8 28 19 38 11 9 20 22 20 28 0
6 -9 9 -20 6 -11 -3 -20 0 -20 6 0 7 -5 5 -10 -3 -9 -13 -10 -13 -11 0 -1 8
-2 22 -3 30 -2 8 -3 23 -4 33 -3 30 -22 18 -22 -14 0 -26 -3 -30 -22 -27 -20
3 -22 8 -20 37 3 27 1 33 -12 28 -12 -5 -16 0 -16 19 0 17 7 28 20 31 11 3 20
10 20 15 0 6 -7 8 -15 5 -8 -4 -17 -2 -20 3 -4 6 7 10 24 10 17 0 30 3 28 8
-1 4 1 8 6 10 18 6 19 1 3 -17 -22 -24 -6 -35 21 -14 18 15 19 18 4 35 -8 10
-28 18 -43 18 -16 0 -28 5 -28 11 0 5 8 9 18 8 31 -3 43 1 37 11 -4 6 7 13 24
16 38 8 41 24 4 24 -33 0 -58 -14 -50 -27 4 -6 -5 -8 -21 -5 -19 4 -22 7 -9
10 19 4 22 17 6 28 -6 3 -15 0 -20 -7 -4 -7 -11 -10 -15 -6 -4 4 1 16 11 27
14 16 15 20 3 20 -10 0 -13 9 -12 30 1 21 -3 31 -18 36 -11 3 -22 3 -25 0 -4
-3 1 -6 10 -6 10 0 17 -4 17 -10 0 -5 -10 -10 -22 -10 -21 0 -21 0 -2 -15 15
-12 16 -14 3 -15 -8 0 -25 11 -37 25 -12 14 -17 25 -11 25 5 0 7 5 3 11 -13
22 -26 -8 -13 -32 15 -30 28 -39 58 -39 20 0 22 -4 17 -24 -3 -13 -3 -26 2
-28 11 -5 41 -75 35 -82 -4 -3 -15 -6 -25 -6 -10 0 -18 -4 -18 -10 0 -5 -5
-10 -10 -10 -7 0 -7 7 0 21 11 20 6 39 -7 26 -10 -10 -12 -117 -2 -123 4 -2 6
-11 2 -20 -3 -9 0 -14 8 -12 8 2 15 -7 17 -22 3 -25 41 -110 50 -110 2 0 2 7
-1 15 -4 8 -2 17 3 20 5 3 12 -15 16 -41 6 -43 41 -94 64 -94 6 0 10 -7 10
-16 0 -9 5 -12 12 -8 8 5 9 0 5 -15 -3 -12 1 -27 9 -35 8 -8 14 -17 14 -19 0
-3 25 -31 55 -62 30 -32 55 -62 55 -66 0 -5 6 -9 14 -9 7 0 16 -8 19 -19 3
-14 11 -17 31 -14 21 4 25 2 20 -10 -3 -9 -12 -18 -20 -21 -8 -3 -14 -11 -14
-17 0 -8 4 -8 13 0 27 22 81 -7 82 -44 0 -5 7 -10 15 -10 8 0 23 -13 34 -30
10 -16 26 -35 35 -42 9 -7 12 -13 8 -13 -4 0 6 -20 23 -44 16 -25 30 -51 30
-60 0 -24 21 -64 37 -70 10 -4 11 -1 3 14 -12 23 -13 30 -1 30 5 0 14 -15 20
-32 9 -26 14 -30 21 -18 5 8 11 12 12 10 12 -16 38 -60 38 -65 0 -3 -10 -4
-22 -2 -13 2 -17 2 -10 0 6 -3 12 -8 12 -13 0 -4 11 -11 25 -14 13 -3 36 -17
51 -31 27 -25 27 -26 8 -41 -18 -15 -18 -15 0 -10 15 5 18 2 13 -19 -3 -20 -1
-25 11 -20 12 4 13 3 2 -10 -8 -10 -9 -15 -1 -15 19 0 12 -18 -10 -25 -15 -5
-25 -1 -35 14 -9 12 -19 21 -25 21 -14 0 -11 -37 4 -52 8 -7 12 -19 9 -26 -5
-15 10 -16 25 -1 15 15 67 -16 57 -33 -4 -6 1 -17 11 -24 10 -8 16 -16 13 -20
-4 -3 -16 4 -28 16 -28 28 -39 18 -15 -12 12 -15 8 -13 -10 5 -26 24 -28 29
-17 48 13 21 13 21 -18 2 -23 -13 -27 -19 -15 -21 9 -2 14 -10 11 -18 -3 -7
-1 -16 5 -19 5 -4 7 -11 4 -16 -4 -5 -1 -9 4 -9 6 0 11 -6 11 -12 0 -16 -40
28 -58 62 -13 26 -20 51 -21 81 -1 9 -13 20 -28 25 -16 4 -30 8 -33 9 -33 9
-116 15 -140 10 -50 -11 -34 -25 30 -25 33 0 60 -4 60 -10 0 -5 -4 -10 -9 -10
-5 0 -17 -3 -27 -7 -12 -4 -15 -3 -10 5 5 9 -6 12 -38 12 -25 0 -48 -4 -51
-10 -3 -5 -1 -10 4 -10 14 0 14 -40 1 -60 -10 -16 -13 -1 -13 65 0 17 -5 33
-10 36 -6 5 -6 19 2 40 6 18 9 35 6 37 -3 3 -5 0 -5 -6 0 -7 -4 -12 -9 -12 -5
0 -8 20 -6 45 2 42 1 44 -19 33 -20 -11 -20 -10 -3 9 9 11 17 35 17 55 0 33
-2 36 -27 33 -15 -1 -29 -8 -31 -14 -2 -6 -8 -9 -13 -5 -5 3 -9 0 -9 -5 0 -6
9 -11 19 -11 25 0 38 -20 20 -31 -7 -4 -16 -6 -18 -3 -3 3 1 9 9 14 11 7 4 10
-23 10 -34 0 -40 -4 -52 -34 -16 -38 -49 -66 -78 -66 -13 0 -17 -5 -14 -14 4
-10 1 -13 -9 -9 -7 3 -14 15 -14 26 0 16 -3 18 -12 9 -10 -9 -8 -16 4 -29 16
-15 16 -17 1 -28 -16 -12 -16 -14 0 -29 29 -29 17 -36 -17 -11 -19 14 -19 15
0 36 10 12 15 20 9 17 -68 -30 -85 -40 -85 -48 0 -19 -21 -10 -50 21 -27 30
-28 30 -35 10 -3 -12 -11 -21 -16 -21 -6 0 -3 13 6 28 14 23 23 27 46 24 22
-3 29 0 29 12 0 10 8 16 23 16 20 -1 20 -2 5 -11 -10 -5 -18 -15 -18 -22 0 -8
3 -9 8 -1 4 6 16 14 26 18 19 6 19 7 0 21 -17 14 -18 16 -2 25 10 6 14 18 11
31 -5 18 -3 20 15 15 11 -4 23 -2 27 3 3 7 0 8 -9 5 -9 -3 -16 -2 -16 4 0 5 9
12 21 15 12 3 18 10 14 16 -3 6 -2 11 4 11 6 0 8 7 5 15 -4 10 -1 14 7 12 8
-2 11 -2 7 0 -5 3 -8 13 -8 22 0 13 -8 18 -27 19 -37 1 -81 24 -75 40 3 9 9 7
20 -6 10 -10 25 -19 36 -19 24 0 66 39 66 61 0 22 -32 20 -57 -3 -16 -15 -28
-18 -49 -12 l-29 8 32 7 c18 4 35 7 39 6 3 -1 12 6 18 16 8 10 20 15 29 11 11
-4 20 1 27 13 13 24 13 33 0 25 -16 -10 -12 12 6 29 18 18 30 20 39 6 6 -10
54 18 55 33 0 13 -23 8 -42 -10 -17 -15 -18 -15 -18 7 0 16 -4 20 -15 16 -11
-4 -15 1 -15 17 -1 20 -1 21 -11 4 -6 -10 -9 -27 -6 -38 3 -10 2 -21 -3 -24
-15 -9 -19 50 -4 73 12 19 12 22 0 22 -7 0 -16 -7 -20 -15 -3 -8 -10 -15 -16
-15 -6 0 -8 4 -5 10 3 6 1 10 -4 10 -10 0 -15 -14 -12 -32 0 -5 -6 -8 -14 -8
-8 0 -15 -4 -15 -10 0 -5 7 -7 15 -4 11 5 13 2 9 -10 -5 -12 -2 -15 11 -10 13
5 16 3 13 -7 -2 -8 -18 -16 -34 -17 -33 -4 -49 -22 -31 -35 8 -5 5 -7 -8 -4
-26 5 -78 -21 -69 -34 4 -7 -6 -9 -27 -5 -32 5 -33 4 -14 -11 l20 -15 -20 5
c-11 2 -29 8 -40 11 -11 4 -4 -1 15 -10 19 -9 43 -20 53 -25 10 -6 17 -5 17 0
0 5 -6 12 -12 15 -7 4 -3 4 10 2 12 -2 22 -1 22 4 0 4 7 11 16 14 14 5 15 4 5
-8 -7 -8 -9 -21 -5 -27 5 -9 2 -10 -11 -5 -15 5 -16 4 -5 -9 10 -12 10 -15 -1
-15 -8 0 -3 -6 10 -13 46 -24 9 -42 -48 -23 -16 6 -21 5 -17 -3 4 -6 2 -11 -4
-11 -6 0 -9 -4 -6 -8 3 -5 20 -7 38 -6 18 2 25 1 16 -2 -10 -3 -18 -9 -18 -14
0 -5 8 -11 18 -14 9 -3 5 -4 -10 -2 -16 2 -28 -1 -28 -6 0 -5 -6 -8 -12 -5 -7
2 -12 11 -10 21 4 21 -14 21 -22 -1 -9 -23 13 -35 52 -28 17 3 32 2 32 -3 0
-12 -25 -22 -55 -22 -13 0 -27 -4 -30 -10 -3 -5 -1 -10 5 -10 6 0 8 -4 5 -10
-4 -6 -12 -6 -23 -1 -9 5 -26 12 -37 16 -16 5 -17 8 -5 15 9 6 10 10 3 10 -22
0 -26 -23 -8 -37 21 -15 8 -18 -15 -4 -20 14 -33 2 -18 -16 11 -14 10 -15 -10
-9 -14 5 -22 3 -22 -4 0 -8 12 -11 33 -9 23 3 39 -2 56 -18 22 -21 22 -23 5
-23 -18 -1 -18 -1 -1 -11 13 -8 22 -7 32 1 9 7 15 8 20 0 3 -5 -1 -10 -9 -10
-9 0 -16 -4 -16 -10 0 -5 4 -10 10 -10 5 0 7 -7 4 -15 -4 -8 -10 -13 -14 -10
-4 3 -10 -1 -13 -9 -4 -11 1 -13 19 -10 13 2 24 0 24 -5 0 -6 7 -8 15 -5 8 3
14 9 13 12 -2 21 4 32 17 32 8 0 12 -6 9 -14 -7 -19 43 -31 63 -15 9 8 17 9
21 3 4 -5 17 -9 30 -8 25 1 38 -11 22 -21 -18 -11 -11 -25 14 -25 14 0 30 10
38 23 16 24 88 37 88 16 0 -8 5 -8 15 1 10 9 15 9 15 1 0 -10 -14 -15 -34 -12
-4 1 -14 -3 -21 -9 -10 -8 -14 -7 -18 2 -2 7 -8 10 -12 6 -10 -10 20 -39 31
-30 5 4 -1 -4 -13 -18 -14 -16 -20 -33 -17 -47 3 -11 0 -24 -6 -28 -9 -5 -10
-1 -6 13 6 17 3 20 -12 17 -27 -5 -61 -27 -67 -43 -3 -10 0 -10 16 -1 33 17
34 3 3 -25 l-29 -25 28 -1 c16 0 26 4 22 10 -3 5 1 10 9 10 8 0 17 -4 21 -9 9
-16 582 -14 588 1 4 9 8 9 14 3 4 -5 22 -11 38 -13 23 -2 26 0 15 8 -9 6 -10
10 -3 10 6 0 15 -5 18 -10 3 -6 14 -10 23 -10 13 1 10 6 -11 25 -17 16 -23 25
-14 25 8 0 18 -8 21 -17 6 -15 8 -15 17 -3 7 12 11 13 18 2 4 -8 12 -14 16
-14 4 0 12 6 17 14 6 9 7 6 3 -9 l-6 -22 515 -1 c346 0 516 3 516 10 0 5 6 10
14 10 7 0 19 6 25 13 6 8 23 12 39 9 22 -3 32 2 45 21 l16 25 -29 -8 c-27 -8
-28 -7 -17 11 9 15 24 19 77 20 36 1 70 1 75 0 6 -1 2 5 -7 12 -10 8 -15 17
-11 20 3 4 -1 7 -9 7 -9 0 -20 6 -26 13 -9 10 2 27 47 71 32 32 69 63 81 69
32 17 49 45 32 56 -10 6 -10 10 2 20 8 7 12 19 9 27 -3 9 2 14 13 14 18 1 18
1 2 14 -17 12 -17 14 0 30 10 9 24 16 30 16 6 0 14 5 18 12 5 7 2 9 -9 5 -9
-3 -18 0 -21 9 -3 9 1 14 13 14 17 0 41 37 41 64 0 8 8 20 18 27 15 13 16 12
3 -3 -22 -29 2 -20 31 11 27 29 53 80 44 88 -5 6 -42 -30 -49 -48 -4 -11 -6
-11 -6 -1 -1 14 57 105 71 110 5 2 20 28 34 59 14 30 32 57 40 60 8 3 14 13
14 22 0 9 10 32 22 51 19 31 21 50 22 178 1 129 -1 145 -18 157 -11 9 -17 22
-13 34 3 13 -10 38 -40 76 -50 63 -93 152 -93 190 0 16 -6 25 -16 25 -14 0
-14 -3 -4 -15 10 -12 10 -15 -4 -15 -18 0 -22 -40 -5 -57 7 -7 2 -9 -18 -6
-16 3 -23 1 -16 -4 16 -12 21 -49 6 -46 -8 2 -11 -5 -9 -20 3 -12 5 -30 5 -39
1 -12 10 -18 29 -19 16 -1 20 -3 10 -6 -10 -2 -18 -6 -18 -7 0 -12 33 -66 41
-66 5 0 9 -7 9 -16 0 -9 10 -29 21 -46 18 -24 19 -32 8 -39 -11 -6 -9 -14 9
-38 16 -22 19 -31 9 -31 -10 0 -15 -17 -16 -62 -1 -35 -6 -65 -12 -66 -6 -3
-6 -9 2 -18 9 -11 9 -17 0 -28 -7 -8 -9 -25 -6 -38 5 -24 -33 -78 -56 -78 -8
0 -8 -4 1 -15 9 -10 9 -15 1 -15 -6 0 -11 -5 -11 -11 0 -16 -29 -41 -40 -34
-6 3 -14 -2 -18 -13 -4 -10 -20 -34 -35 -52 -23 -27 -30 -31 -38 -19 -8 12
-11 11 -20 -4 -18 -31 -56 -67 -70 -67 -11 0 -12 2 -1 9 32 20 6 127 -29 116
-9 -3 -19 1 -22 9 -4 10 -1 13 7 10 17 -6 41 22 26 31 -5 3 -10 11 -10 16 0 6
5 7 12 3 8 -5 9 -2 5 9 -3 9 0 23 8 31 8 8 15 19 15 24 0 5 7 15 15 22 16 13
20 45 8 53 -5 2 -3 3 4 1 11 -3 29 41 24 60 -1 5 6 17 15 27 9 10 14 25 10 34
-3 8 4 34 16 57 15 29 18 43 10 46 -7 2 -12 12 -12 22 0 10 -7 21 -16 24 -12
4 -15 2 -10 -9 3 -8 1 -15 -5 -15 -5 0 -14 10 -19 23 -9 22 -12 18 -14 -15 -1
-10 -5 -17 -10 -17 -5 0 -13 -5 -17 -13 -7 -10 -10 -8 -15 9 -4 14 -11 20 -18
16 -6 -4 -5 0 2 9 10 12 10 17 1 20 -9 3 -9 9 -2 22 8 14 6 23 -8 37 -23 23
-39 24 -39 5 0 -8 -5 -18 -12 -22 -8 -5 -9 0 -6 14 5 18 2 22 -17 22 -13 0
-27 5 -31 11 -4 8 -9 7 -15 -2 -5 -9 -10 -4 -15 17 -10 43 -17 50 -25 28 -5
-13 -7 -7 -7 21 -1 70 -2 77 -17 71 -8 -3 -19 2 -24 12 -13 23 -25 9 -13 -15
5 -10 7 -33 5 -51 -4 -26 -9 -31 -24 -27 -17 6 -18 3 -9 -20 8 -20 7 -30 -5
-42 -13 -13 -21 -13 -45 -3 -19 8 -30 20 -30 32 0 16 3 17 20 8 11 -6 20 -15
20 -20 0 -6 7 -10 15 -10 18 0 20 16 3 27 -24 15 -38 53 -39 108 -1 30 -6 55
-10 55 -5 0 -9 8 -9 19 0 10 -6 24 -14 30 -8 7 -17 27 -20 45 -4 19 -13 36
-20 39 -7 3 -16 19 -19 36 -4 20 -13 31 -23 31 -9 0 -25 9 -35 21 -10 11 -22
18 -27 15 -6 -3 -13 6 -16 19 -4 15 -17 30 -31 35 -14 5 -25 17 -25 25 0 12
-4 14 -16 7 -9 -5 -26 -7 -37 -4 -13 3 -18 1 -13 -6 5 -8 2 -10 -8 -6 -9 3
-13 10 -10 15 3 5 0 9 -6 9 -14 0 -40 25 -40 39 0 6 -5 11 -11 11 -14 0 -39
25 -39 39 0 6 -11 11 -24 11 -16 0 -26 7 -29 21 -3 11 -14 23 -25 26 -14 3
-18 11 -14 26 5 19 3 20 -10 10 -18 -15 -39 2 -31 25 5 12 1 14 -20 10 -22 -4
-26 -2 -24 14 1 15 -9 24 -39 36 -24 10 -39 22 -37 30 7 17 -1 15 -21 -7z
m-76 -371 c8 -5 15 -23 15 -40 0 -35 -15 -39 -83 -24 l-23 5 28 34 c30 36 40
40 63 25z m80 -55 c0 -7 6 -16 13 -19 6 -3 1 -3 -13 0 -22 6 -50 26 -50 37 0
2 11 2 25 -1 14 -2 25 -10 25 -17z m-870 -15 c0 -5 -4 -10 -10 -10 -5 0 -10 5
-10 10 0 6 5 10 10 10 6 0 10 -4 10 -10z m1420 -39 c0 -5 -7 -11 -14 -14 -10
-4 -13 -1 -9 9 6 15 23 19 23 5z m-1273 -82 c-23 -14 -22 -33 3 -26 23 6 27
-11 5 -19 -8 -4 -12 -10 -10 -15 3 -4 -3 -14 -15 -21 -11 -7 -20 -18 -20 -24
0 -15 -39 -64 -51 -64 -6 0 -7 6 -3 13 5 8 3 8 -9 -2 -15 -12 -18 -10 -26 10
-6 17 -5 25 4 27 19 4 27 32 15 47 -7 8 -7 16 -2 19 6 3 13 -4 17 -17 7 -21 7
-21 13 -2 4 11 15 21 25 22 12 0 16 -4 13 -12 -3 -9 0 -12 8 -9 8 3 12 14 9
25 -3 10 -9 16 -14 13 -5 -3 -9 0 -9 5 0 6 5 11 10 11 6 0 10 6 10 14 0 8 8
16 18 18 24 6 30 -2 9 -13z m1090 -129 c-1 -11 -7 -20 -13 -20 -7 0 -10 8 -7
20 3 11 9 20 14 20 4 0 7 -9 6 -20z m-128 -22 c15 -9 26 -9 44 -1 26 12 37 8
37 -13 0 -11 -28 -25 -56 -28 -6 -1 -18 -6 -25 -12 -16 -12 -89 -39 -134 -49
-43 -10 -133 -54 -187 -93 -27 -19 -53 -30 -59 -26 -8 4 -9 3 -5 -4 5 -8 -3
-10 -26 -5 -39 7 -58 20 -58 39 0 8 -5 14 -11 14 -5 0 -8 -4 -5 -9 14 -22 -42
-36 -71 -18 -6 4 -18 4 -26 1 -8 -3 -18 0 -22 6 -10 16 15 41 36 35 9 -3 20
-1 24 5 3 6 11 7 17 4 18 -11 89 -11 96 0 7 11 33 27 87 55 17 8 59 16 94 18
80 2 91 7 91 35 l0 22 20 -22 c24 -26 38 -28 46 -7 4 8 12 15 20 15 7 0 16 11
20 25 7 27 24 32 53 13z m292 -17 c-8 -5 -5 -20 9 -49 21 -43 27 -68 10 -42
-7 10 -10 11 -10 2 0 -7 6 -15 14 -18 8 -3 12 -12 9 -20 -10 -25 6 -60 33 -72
14 -7 29 -10 33 -8 4 3 12 -8 18 -25 7 -17 7 -31 2 -35 -5 -3 -9 -1 -9 4 0 6
-9 8 -20 5 -24 -6 -27 -23 -4 -23 12 0 15 -6 11 -22 -4 -12 -3 -41 0 -65 4
-31 11 -44 27 -50 20 -6 20 -7 -4 -13 -24 -6 -24 -7 13 -24 42 -21 52 -32 37
-41 -18 -11 -11 -24 16 -27 l26 -3 -27 -30 c-17 -18 -25 -23 -21 -12 3 10 2
16 -3 13 -5 -3 -15 1 -22 10 -10 13 -10 17 2 25 11 7 9 9 -8 9 -13 0 -23 5
-23 12 0 6 -3 9 -6 6 -11 -12 -10 -43 2 -67 17 -32 8 -42 -12 -13 -8 12 -22
22 -30 22 -17 0 -18 -12 -2 -28 10 -10 10 -15 -1 -21 -8 -5 -10 -14 -6 -22 5
-8 -2 -5 -15 6 -21 18 -23 18 -17 2 4 -10 1 -25 -6 -32 -29 -34 -35 -43 -30
-49 3 -3 3 -13 -1 -22 -6 -16 -8 -15 -21 2 -14 18 -14 18 -15 -4 0 -19 -3 -21
-18 -11 -15 9 -24 8 -45 -6 -32 -21 -35 -45 -7 -52 20 -5 28 -23 11 -23 -20 0
-41 13 -41 25 0 8 -5 17 -12 21 -7 4 -8 3 -4 -4 4 -7 2 -20 -3 -29 -10 -17
-10 -16 -11 2 -1 15 -5 11 -19 -15 -30 -61 -31 -62 -47 -49 -19 16 -19 -10 1
-37 17 -23 19 -34 5 -34 -13 0 -50 37 -50 50 0 21 -20 9 -26 -15 -7 -29 -16
-31 -34 -10 -7 8 -19 15 -26 15 -8 0 -14 6 -14 13 0 9 -2 9 -9 -1 -12 -19 -42
12 -35 36 5 13 4 14 -4 3 -5 -7 -15 -10 -21 -7 -6 4 -11 0 -12 -11 0 -12 -2
-13 -6 -5 -3 9 -13 0 -28 -23 l-22 -38 -7 41 c-9 59 -22 59 -36 2 -13 -56 -27
-66 -27 -21 0 17 -5 37 -13 46 -11 13 -15 13 -31 -6 -23 -27 -24 -30 -4 -23 8
4 15 1 15 -5 0 -6 -4 -11 -10 -11 -5 0 -13 0 -17 0 -5 0 -8 8 -8 18 -1 9 -6
16 -13 15 -11 -3 -16 10 -13 31 1 4 -4 15 -11 24 -11 13 -10 15 10 10 28 -8
29 3 1 20 -17 11 -25 11 -47 -4 -33 -21 -57 -45 -57 -55 0 -4 -4 -11 -9 -16
-5 -4 -6 -3 -2 4 11 20 -16 27 -30 8 -27 -37 -57 2 -34 46 7 13 7 19 0 19 -5
0 -10 -7 -10 -17 0 -9 -3 -13 -7 -10 -3 4 -14 0 -24 -9 -15 -13 -23 -14 -53
-4 -33 11 -50 30 -26 30 6 0 10 4 10 9 0 5 -8 7 -19 4 -13 -3 -20 2 -24 17 -3
12 -10 19 -15 16 -6 -3 -12 1 -16 9 -3 8 -1 17 4 20 15 10 12 28 -4 22 -8 -3
-17 1 -20 9 -3 8 -13 14 -23 14 -14 0 -15 2 -4 9 7 5 10 14 7 20 -4 6 -11 9
-16 6 -13 -8 -24 43 -12 58 10 12 2 49 -11 48 -22 -3 -27 0 -27 15 0 8 -4 13
-9 10 -12 -8 -23 22 -14 37 4 7 15 18 25 25 10 7 16 18 12 23 -4 6 -11 6 -20
-2 -11 -9 -17 -9 -29 1 -17 14 -21 0 -5 -16 7 -7 5 -17 -5 -30 -12 -16 -14
-17 -15 -2 0 9 -6 18 -12 21 -15 4 -16 93 -2 107 6 6 22 5 41 -2 24 -9 38 -9
58 0 20 9 31 9 47 1 18 -10 24 -8 35 7 13 17 14 16 7 -11 l-7 -30 27 24 c14
14 26 20 26 14 0 -6 -8 -14 -17 -18 -17 -6 -17 -7 0 -16 13 -7 22 -6 33 6 15
14 17 14 30 -2 13 -17 15 -17 28 0 8 11 12 25 9 32 -3 10 4 13 27 13 17 -1 33
-5 36 -9 3 -5 14 0 26 11 12 11 26 16 32 13 15 -10 70 -3 77 9 4 6 19 11 35
13 38 4 74 16 74 24 0 4 16 13 35 20 28 10 35 17 30 31 -5 15 -2 18 14 15 13
-2 21 3 24 17 4 15 11 19 23 14 10 -4 20 -2 24 4 4 6 24 13 46 15 21 3 33 3
27 -1 -7 -3 -13 -12 -13 -20 0 -26 31 -14 78 31 61 58 105 95 114 95 4 0 19 5
35 11 15 6 48 11 73 10 35 -2 50 3 64 18 10 11 25 17 33 14 10 -4 11 -8 4 -12z
m-1421 -11 c0 -5 -2 -10 -4 -10 -3 0 -8 5 -11 10 -3 6 -1 10 4 10 6 0 11 -4
11 -10z m-344 -37 c-10 -10 -19 5 -10 18 6 11 8 11 12 0 2 -7 1 -15 -2 -18z
m99 -173 c-3 -5 -12 -10 -18 -10 -7 0 -6 4 3 10 19 12 23 12 15 0z m2232 -12
c-3 -8 -6 -5 -6 6 -1 11 2 17 5 13 3 -3 4 -12 1 -19z m-1773 -43 c-4 -8 -11
-12 -17 -8 -8 5 -7 8 1 11 7 2 9 9 6 14 -4 7 -2 8 4 4 6 -4 9 -13 6 -21z
m1381 14 c11 -17 -1 -21 -15 -4 -8 9 -8 15 -2 15 6 0 14 -5 17 -11z m349 5
c16 -6 23 -44 8 -44 -5 0 -14 11 -20 25 -12 27 -12 28 12 19z m-1680 -50 c10
-38 1 -40 -17 -5 -12 25 -13 31 -2 31 7 0 16 -12 19 -26z m1730 -29 c-4 -8
-11 -15 -16 -15 -6 0 -5 6 2 15 7 8 14 15 16 15 2 0 1 -7 -2 -15z m-429 -235
c3 -5 1 -10 -4 -10 -6 0 -11 5 -11 10 0 6 2 10 4 10 3 0 8 -4 11 -10z m355
-116 c0 -2 -12 -15 -27 -29 -16 -15 -21 -23 -11 -20 12 5 17 2 15 -13 -1 -13
-6 -18 -16 -14 -9 3 -12 1 -7 -6 4 -7 2 -12 -4 -12 -6 0 -15 -11 -20 -25 -5
-14 -16 -25 -25 -25 -8 0 -15 -4 -15 -8 0 -5 -6 -9 -12 -9 -7 0 -22 -4 -33 -8
-14 -4 -9 3 13 23 27 24 30 31 19 40 -8 7 -18 8 -22 4 -5 -4 0 5 11 20 10 15
29 28 41 28 14 0 24 9 31 28 7 19 16 27 36 28 14 1 26 0 26 -2z m-185 -204
c-10 -11 -23 -20 -28 -20 -6 0 -2 9 8 20 10 11 23 20 28 20 6 0 2 -9 -8 -20z
m-775 -27 c0 -8 -4 -12 -9 -9 -5 4 -7 -3 -4 -13 4 -15 0 -20 -16 -18 -12 1
-21 2 -21 3 0 2 4 13 9 27 10 25 41 33 41 10z m-1205 -33 c-3 -5 -1 -19 5 -30
13 -24 -4 -28 -26 -5 -10 10 -11 15 -4 15 7 0 10 7 6 15 -3 9 0 15 10 15 8 0
12 -4 9 -10z m-65 -95 c14 -9 2 -25 -18 -25 -15 0 -15 2 -2 10 13 8 13 10 -2
10 -9 0 -20 -9 -23 -20 -4 -11 -10 -18 -15 -15 -4 3 -3 16 3 29 11 23 32 27
57 11z m-80 -49 c0 -11 -19 -15 -25 -6 -3 5 1 10 9 10 9 0 16 -2 16 -4z m1830
-26 c0 -5 -7 -10 -16 -10 -8 0 -12 5 -9 10 3 6 10 10 16 10 5 0 9 -4 9 -10z
m-207 -95 c-3 -9 -8 -14 -10 -11 -3 3 -2 9 2 15 9 16 15 13 8 -4z m-643 -24
c0 -6 -5 -13 -10 -16 -7 -4 -7 -13 0 -26 8 -13 7 -25 -1 -41 -11 -21 -12 -21
-25 -3 -16 21 -19 55 -5 55 5 0 13 9 16 20 6 20 25 28 25 11z m-626 -12 c9 14
26 14 26 1 0 -5 -7 -10 -16 -10 -11 0 -14 -6 -9 -20 3 -11 1 -28 -5 -37 -10
-16 -11 -16 -6 -1 3 10 1 20 -4 23 -6 4 -10 -1 -10 -10 0 -9 -5 -13 -10 -10
-7 4 -5 14 4 27 8 11 12 28 9 37 -4 12 -3 13 5 2 7 -9 12 -10 16 -2z m181 -41
c-27 -48 -31 -74 -12 -81 7 -3 5 -6 -5 -6 -14 -1 -18 7 -18 33 0 19 6 41 13
48 7 7 16 21 20 31 3 9 11 17 16 17 5 0 -1 -19 -14 -42z m-119 -12 c-13 -25
-14 -25 -19 -6 -3 12 1 23 11 29 23 13 25 8 8 -23z m584 -46 c10 -19 10 -20
-9 -8 -22 13 -28 28 -11 28 5 0 14 -9 20 -20z m-560 -10 c0 -11 -4 -20 -9 -20
-5 0 -7 9 -4 20 3 11 7 20 9 20 2 0 4 -9 4 -20z m-38 -22 c-8 -8 -9 -4 -5 13
4 13 8 18 11 10 2 -7 -1 -18 -6 -23z m-132 12 c0 -5 -5 -10 -11 -10 -5 0 -7 5
-4 10 3 6 8 10 11 10 2 0 4 -4 4 -10z m570 -16 c0 -8 -5 -12 -10 -9 -6 4 -8
11 -5 16 9 14 15 11 15 -7z"/>
<path d="M1786 1455 c-3 -8 -1 -15 4 -15 13 0 22 18 11 24 -5 3 -11 -1 -15 -9z"/>
<path d="M1906 1051 c-3 -5 1 -11 9 -15 8 -3 15 -1 15 4 0 13 -18 22 -24 11z"/>
<path d="M2573 1052 c-18 -2 -33 -7 -33 -11 0 -4 -22 -8 -50 -10 -27 -1 -66
-9 -85 -17 -20 -8 -40 -12 -44 -9 -5 2 -14 -2 -21 -10 -6 -7 -18 -11 -26 -8
-10 4 -12 0 -8 -11 4 -11 1 -16 -10 -16 -9 0 -16 8 -16 20 0 27 -13 25 -27 -5
-6 -14 -7 -23 -2 -19 5 3 9 1 9 -4 0 -5 11 -15 25 -22 14 -7 25 -22 25 -33 0
-15 3 -17 14 -8 7 6 20 9 29 5 19 -7 32 -37 18 -42 -6 -2 -11 -8 -11 -13 0 -5
17 2 37 16 l38 25 8 -22 c5 -14 4 -24 -2 -26 -6 -2 -11 -10 -11 -18 0 -9 5
-12 12 -8 8 5 9 2 5 -10 -6 -15 -3 -17 26 -10 17 4 44 6 59 6 17 -2 31 5 37
15 6 10 11 12 11 6 0 -15 16 -17 33 -3 7 5 27 21 44 36 18 14 32 28 31 32 -5
24 31 71 50 64 21 -7 2 48 -27 78 -27 28 -71 38 -138 32z m39 -174 c-8 -8 -9
-4 -5 13 4 13 8 18 11 10 2 -7 -1 -18 -6 -23z"/>
<path d="M2752 1015 c0 -16 2 -22 5 -12 2 9 2 23 0 30 -3 6 -5 -1 -5 -18z"/>
<path d="M2195 980 c-3 -5 -1 -10 4 -10 6 0 11 5 11 10 0 6 -2 10 -4 10 -3 0
-8 -4 -11 -10z"/>
<path d="M2220 980 c0 -5 5 -10 10 -10 6 0 10 5 10 10 0 6 -4 10 -10 10 -5 0
-10 -4 -10 -10z"/>
<path d="M1966 953 c-11 -11 -6 -23 9 -23 8 0 15 4 15 9 0 13 -16 22 -24 14z"/>
<path d="M2156 851 c-4 -7 -5 -15 -2 -18 9 -9 19 4 14 18 -4 11 -6 11 -12 0z"/>
<path d="M2395 830 c-3 -5 1 -10 9 -10 9 0 16 5 16 10 0 6 -4 10 -9 10 -6 0
-13 -4 -16 -10z"/>
<path d="M2352 754 c4 -21 22 -23 26 -1 2 10 -3 17 -13 17 -10 0 -15 -6 -13
-16z"/>
<path d="M2414 706 c-16 -17 -24 -68 -10 -63 6 2 11 10 11 18 0 8 10 19 23 24
21 9 21 11 5 21 -14 8 -21 8 -29 0z"/>
<path d="M3525 650 c3 -5 8 -10 11 -10 2 0 4 5 4 10 0 6 -5 10 -11 10 -5 0 -7
-4 -4 -10z"/>
<path d="M1750 2121 c0 -7 -4 -9 -10 -6 -5 3 -10 1 -10 -4 0 -6 4 -11 9 -11
13 0 25 20 17 27 -3 4 -6 1 -6 -6z"/>
<path d="M1130 2110 c0 -5 5 -10 10 -10 6 0 10 5 10 10 0 6 -4 10 -10 10 -5 0
-10 -4 -10 -10z"/>
<path d="M1827 2035 c-4 -8 -2 -17 3 -20 6 -4 10 3 10 14 0 25 -6 27 -13 6z"/>
<path d="M1850 2011 c0 -6 5 -13 10 -16 6 -3 10 1 10 9 0 9 -4 16 -10 16 -5 0
-10 -4 -10 -9z"/>
<path d="M1230 1905 c7 -9 15 -13 17 -11 7 7 -7 26 -19 26 -6 0 -6 -6 2 -15z"/>
<path d="M3580 1751 c0 -6 4 -13 10 -16 6 -3 7 1 4 9 -7 18 -14 21 -14 7z"/>
<path d="M1240 1722 c0 -10 6 -26 13 -36 13 -18 14 -18 21 0 4 11 3 20 -3 22
-6 2 -11 10 -11 18 0 8 -4 14 -10 14 -5 0 -10 -8 -10 -18z"/>
<path d="M1350 1710 c0 -5 5 -10 10 -10 6 0 10 5 10 10 0 6 -4 10 -10 10 -5 0
-10 -4 -10 -10z"/>
<path d="M3603 1700 c2 -8 12 -16 23 -17 13 -2 15 -1 4 4 -8 3 -19 11 -23 17
-6 7 -7 6 -4 -4z"/>
<path d="M2800 1680 c0 -5 5 -10 11 -10 5 0 7 5 4 10 -3 6 -8 10 -11 10 -2 0
-4 -4 -4 -10z"/>
<path d="M3850 1660 c0 -5 7 -10 16 -10 8 0 12 5 9 10 -3 6 -10 10 -16 10 -5
0 -9 -4 -9 -10z"/>
<path d="M1434 1598 c-4 -7 -4 -10 1 -6 4 4 16 3 26 -3 11 -5 19 -7 19 -5 0 3
-9 10 -19 16 -15 7 -22 7 -27 -2z"/>
<path d="M1570 1530 c0 -5 5 -10 11 -10 5 0 7 5 4 10 -3 6 -8 10 -11 10 -2 0
-4 -4 -4 -10z"/>
<path d="M3630 1529 c0 -5 -4 -8 -9 -5 -10 7 -24 -22 -16 -34 5 -9 55 31 55
44 0 3 -7 6 -15 6 -8 0 -15 -5 -15 -11z"/>
<path d="M3564 1522 c3 -6 2 -13 -3 -17 -6 -3 -8 -12 -5 -20 4 -8 10 -12 15
-9 13 8 11 42 -3 50 -6 4 -8 3 -4 -4z"/>
<path d="M1488 1513 c7 -3 16 -2 19 1 4 3 -2 6 -13 5 -11 0 -14 -3 -6 -6z"/>
<path d="M3317 1486 c-4 -11 -3 -22 3 -26 6 -4 14 -20 19 -35 4 -16 10 -25 14
-19 3 6 0 22 -8 37 -7 14 -15 34 -17 44 -3 17 -4 17 -11 -1z"/>
<path d="M1560 1473 c0 -7 44 -42 54 -43 5 0 4 6 -3 13 -7 9 -7 17 0 24 7 7 0
10 -21 11 -16 0 -30 -2 -30 -5z"/>
<path d="M1516 1452 c-2 -4 4 -8 14 -8 10 0 16 4 14 8 -3 4 -9 8 -14 8 -5 0
-11 -4 -14 -8z"/>
<path d="M3754 1305 c1 -33 16 -33 16 0 0 14 -4 25 -9 25 -5 0 -8 -11 -7 -25z"/>
<path d="M4240 1300 c0 -5 5 -10 11 -10 5 0 7 5 4 10 -3 6 -8 10 -11 10 -2 0
-4 -4 -4 -10z"/>
<path d="M4270 1300 c0 -5 21 -9 48 -9 42 1 44 2 17 9 -44 11 -65 11 -65 0z"/>
<path d="M3730 1261 c0 -5 5 -13 10 -16 6 -3 10 -2 10 4 0 5 -4 13 -10 16 -5
3 -10 2 -10 -4z"/>
<path d="M4265 1207 c-13 -15 -15 -28 -9 -56 4 -20 6 -40 5 -45 -1 -4 1 -17 5
-29 6 -20 7 -20 20 -2 18 25 18 45 -1 45 -8 0 -15 5 -15 10 0 6 12 10 26 10
15 0 23 4 18 11 -3 6 -14 9 -24 6 -19 -5 -35 17 -24 34 8 14 41 11 47 -5 7
-17 63 -26 76 -13 7 7 15 6 24 -1 8 -7 17 -9 20 -5 4 3 7 2 7 -4 0 -6 11 -8
24 -6 16 3 36 -3 55 -17 40 -28 40 -10 0 29 -18 18 -41 31 -57 32 -40 1 -93 8
-122 16 -45 12 -58 11 -75 -10z"/>
<path d="M1545 1170 c3 -5 13 -10 21 -10 8 0 14 5 14 10 0 6 -9 10 -21 10 -11
0 -17 -4 -14 -10z"/>
<path d="M4460 1120 c0 -5 4 -10 9 -10 6 0 13 5 16 10 3 6 -1 10 -9 10 -9 0
-16 -4 -16 -10z"/>
<path d="M4328 1093 c7 -3 16 -2 19 1 4 3 -2 6 -13 5 -11 0 -14 -3 -6 -6z"/>
<path d="M4570 1085 c7 -9 15 -13 17 -11 7 7 -7 26 -19 26 -6 0 -6 -6 2 -15z"/>
<path d="M4351 1081 c-8 -5 -19 -7 -25 -5 -19 7 -42 -14 -30 -26 9 -9 17 -8
32 1 16 10 26 9 55 -5 20 -9 55 -19 79 -22 24 -3 53 -12 65 -20 12 -8 27 -14
34 -14 19 0 61 -38 49 -45 -13 -8 -13 -25 0 -25 13 0 55 42 55 55 1 6 7 9 14
7 16 -3 9 20 -7 26 -7 2 -12 -3 -12 -12 0 -9 -1 -16 -2 -16 -49 9 -109 28
-108 35 0 6 9 10 20 9 29 -1 33 25 6 36 -49 18 -206 33 -225 21z"/>
<path d="M4688 1043 c7 -3 16 -2 19 1 4 3 -2 6 -13 5 -11 0 -14 -3 -6 -6z"/>
<path d="M4316 1023 c-5 -13 -1 -14 23 -10 22 5 34 2 43 -11 7 -10 20 -22 28
-27 13 -8 13 -7 1 8 -7 9 -10 17 -5 17 5 0 -2 8 -16 17 -32 22 -67 25 -74 6z"/>
<path d="M4440 985 c0 -9 7 -15 16 -13 10 2 19 -2 21 -8 6 -16 -49 -10 -83 10
-41 24 -76 10 -80 -32 -4 -29 -1 -32 24 -32 21 0 24 -2 12 -10 -8 -5 -27 -10
-42 -10 -46 0 -31 -20 32 -44 8 -3 -2 -5 -22 -3 -45 4 -41 35 -38 -299 2 -231
1 -244 -25 -350 -24 -96 -45 -151 -45 -117 0 18 -81 51 -168 68 -54 11 -110
15 -174 12 -152 -7 -203 -22 -205 -58 -1 -13 -7 -25 -13 -27 -5 -2 -10 -11
-10 -19 0 -10 -6 -13 -16 -9 -9 3 -12 2 -9 -5 4 -6 -1 -17 -11 -24 -17 -13
-14 -14 33 -15 43 0 51 3 47 15 -5 11 -2 13 10 9 10 -4 16 -1 16 7 0 8 11 28
25 44 l25 30 -12 -28 c-9 -23 -9 -30 1 -36 10 -6 7 -12 -10 -25 -22 -15 3 -16
368 -16 338 0 392 2 397 15 3 8 12 15 21 15 18 0 20 -16 3 -23 -7 -3 80 -6
195 -6 132 -1 207 3 207 9 0 6 7 10 15 10 8 0 15 -4 15 -10 0 -6 33 -10 80
-10 65 0 80 3 80 15 0 9 -10 19 -22 24 l-23 8 23 7 c19 7 22 14 22 67 0 40 -4
59 -12 59 -10 0 -10 2 0 9 19 12 11 45 -13 53 -18 5 -18 6 3 7 18 1 23 6 20
24 -2 12 -12 28 -23 35 l-20 12 20 -2 c18 -3 20 3 21 55 0 54 -1 57 -25 58
-21 1 -22 2 -6 6 11 3 23 10 27 17 11 17 9 48 -2 41 -17 -11 -80 -14 -80 -4 0
5 4 9 9 9 5 0 11 9 14 20 4 17 10 20 33 14 19 -5 25 -4 20 5 -4 6 -16 11 -27
11 -21 0 -26 15 -6 24 6 3 -4 3 -23 0 -31 -6 -33 -5 -21 10 7 9 10 16 5 16 -4
0 1 7 12 16 10 8 12 12 4 8 -11 -6 -10 -2 3 13 20 23 22 39 5 46 -7 3 2 11 20
17 25 9 30 15 20 21 -10 7 -9 9 5 9 10 0 16 4 12 10 -3 5 -12 7 -21 3 -18 -7
-15 17 3 32 7 5 15 27 18 48 3 32 2 38 -11 33 -9 -3 -24 -1 -36 5 -19 10 -19
11 -1 24 22 18 10 19 -17 3 -18 -11 -17 -13 16 -35 19 -13 34 -30 34 -38 0
-11 -5 -10 -20 5 -26 26 -66 35 -96 21 -31 -14 -35 -14 -32 2 2 6 -3 11 -11 9
-17 -3 -43 17 -35 29 7 13 20 11 36 -4 22 -22 48 -28 48 -12 0 8 -5 15 -10 15
-6 0 -15 11 -20 25 -5 14 -16 25 -24 25 -8 0 -16 5 -18 12 -7 19 -30 -3 -25
-23 3 -11 1 -17 -4 -14 -5 3 -19 1 -31 -6 -17 -9 -23 -9 -26 0 -2 6 -12 16
-23 21 -14 8 -17 7 -13 -4 8 -21 -11 -28 -41 -14 -20 9 -31 9 -45 0 -12 -7
-20 -8 -22 -1 -2 6 -16 12 -31 13 -21 3 -27 0 -23 -10 3 -8 1 -14 -4 -14 -6 0
-10 5 -10 11 0 7 -9 9 -22 6 -20 -6 -78 17 -78 30 0 3 8 12 17 19 23 16 16 23
-31 26 -20 1 -40 6 -42 10 -9 14 -24 9 -24 -7z m65 -45 c3 -5 -1 -10 -10 -10
-9 0 -13 5 -10 10 3 6 8 10 10 10 2 0 7 -4 10 -10z m245 -50 c8 -5 11 -12 7
-16 -4 -4 5 -16 20 -26 38 -25 23 -23 -28 4 -24 12 -37 24 -31 26 7 2 10 8 6
13 -7 12 7 11 26 -1z m-211 -51 c23 -18 24 -18 38 -2 13 16 14 16 9 1 -3 -9 0
-19 7 -21 9 -3 9 -8 1 -16 -11 -12 -44 -5 -44 9 0 5 -31 18 -70 30 -38 12 -70
24 -70 27 0 12 107 -11 129 -28z m-125 -5 c4 -10 1 -14 -6 -12 -15 5 -23 28
-10 28 5 0 13 -7 16 -16z m82 -19 c18 -15 18 -15 -10 -13 -16 2 -31 9 -34 16
-5 17 20 15 44 -3z m214 -1 c0 -2 -11 -4 -25 -4 -14 0 -25 4 -25 9 0 4 11 6
25 3 14 -2 25 -6 25 -8z m345 -12 c-8 -8 -25 10 -19 20 4 6 9 5 15 -3 4 -7 6
-15 4 -17z m-299 -1 c23 -18 23 -19 4 -24 -11 -3 -23 -1 -26 4 -3 6 -14 7 -25
4 -24 -8 -25 3 -1 21 22 17 20 17 48 -5z m-101 -51 c3 -5 1 -10 -4 -10 -6 0
-11 5 -11 10 0 6 2 10 4 10 3 0 8 -4 11 -10z m55 -92 c0 -6 -7 -5 -15 2 -8 7
-15 17 -15 22 0 6 7 5 15 -2 8 -7 15 -17 15 -22z m-97 -34 c-21 -8 -39 -14
-39 -14 -1 0 -5 7 -8 16 -3 8 -2 13 3 9 5 -3 21 -1 36 5 19 7 25 14 19 23 -5
7 -1 4 9 -7 17 -19 17 -20 -20 -32z m87 6 c0 -5 -4 -10 -10 -10 -5 0 -10 5
-10 10 0 6 5 10 10 10 6 0 10 -4 10 -10z m160 -90 c0 -5 -2 -10 -4 -10 -3 0
-8 5 -11 10 -3 6 -1 10 4 10 6 0 11 -4 11 -10z m-170 -85 c7 -9 8 -15 2 -15
-5 0 -12 7 -16 15 -3 8 -4 15 -2 15 2 0 9 -7 16 -15z m300 -5 c0 -5 -2 -10 -4
-10 -3 0 -8 5 -11 10 -3 6 -1 10 4 10 6 0 11 -4 11 -10z m-385 -40 c3 -5 -1
-10 -10 -10 -9 0 -13 5 -10 10 3 6 8 10 10 10 2 0 7 -4 10 -10z m259 -22 c-3
-4 -11 -5 -19 -1 -21 7 -19 12 4 10 11 0 18 -5 15 -9z m-226 -29 c-19 -13 -28
-11 -28 5 0 9 7 12 21 9 16 -4 17 -8 7 -14z m467 11 c-3 -5 -10 -10 -16 -10
-5 0 -9 5 -9 10 0 6 7 10 16 10 8 0 12 -4 9 -10z m-210 -20 c3 -5 2 -10 -4
-10 -5 0 -13 5 -16 10 -3 6 -2 10 4 10 5 0 13 -4 16 -10z m-195 -9 c0 -5 -9
-11 -20 -14 -20 -5 -26 3 -13 16 9 10 33 8 33 -2z m120 -94 c0 -12 -64 29 -68
43 -3 7 12 1 32 -12 20 -13 36 -27 36 -31z m-270 23 c0 -5 -4 -10 -10 -10 -5
0 -10 5 -10 10 0 6 5 10 10 10 6 0 10 -4 10 -10z m374 -86 c4 -10 1 -14 -6
-12 -15 5 -23 28 -10 28 5 0 13 -7 16 -16z m174 -26 c22 -22 14 -38 -20 -37
-31 2 -31 2 -5 6 28 4 38 23 12 23 -8 0 -15 5 -15 10 0 14 13 13 28 -2z
m-1308 -57 c0 -6 -4 -13 -10 -16 -5 -3 -10 1 -10 9 0 9 5 16 10 16 6 0 10 -4
10 -9z"/>
<path d="M4767 983 c-14 -4 -16 -8 -6 -19 15 -18 33 -18 26 0 -3 8 -1 17 6 20
15 6 -2 5 -26 -1z"/>
<path d="M4705 960 c-3 -5 -1 -10 4 -10 6 0 11 5 11 10 0 6 -2 10 -4 10 -3 0
-8 -4 -11 -10z"/>
<path d="M1448 931 c-14 -17 -19 -61 -7 -61 21 0 59 21 54 30 -3 5 -13 6 -22
3 -11 -4 -14 -3 -9 5 4 7 14 12 22 12 21 0 17 17 -5 23 -10 2 -25 -3 -33 -12z"/>
<path d="M4550 944 c0 -1 6 -7 14 -13 10 -9 15 -8 19 3 4 10 0 14 -14 13 -10
-1 -19 -2 -19 -3z"/>
<path d="M4720 930 c0 -5 5 -10 11 -10 5 0 7 5 4 10 -3 6 -8 10 -11 10 -2 0
-4 -4 -4 -10z"/>
<path d="M4996 885 c4 -8 10 -15 15 -15 5 0 9 7 9 15 0 8 -7 15 -15 15 -9 0
-12 -6 -9 -15z"/>
<path d="M1553 868 c-12 -16 -24 -48 -18 -48 2 0 11 14 20 30 16 31 15 40 -2
18z"/>
<path d="M1574 825 c-10 -8 -14 -15 -8 -15 6 0 17 7 24 15 16 19 9 19 -16 0z"/>
<path d="M1460 800 c0 -5 7 -10 15 -10 8 0 15 5 15 10 0 6 -7 10 -15 10 -8 0
-15 -4 -15 -10z"/>
<path d="M1605 801 c-3 -5 -2 -12 3 -15 5 -3 9 1 9 9 0 17 -3 19 -12 6z"/>
<path d="M3746 751 c-4 -7 -5 -15 -2 -18 9 -9 19 4 14 18 -4 11 -6 11 -12 0z"/>
<path d="M1208 743 c7 -3 16 -2 19 1 4 3 -2 6 -13 5 -11 0 -14 -3 -6 -6z"/>
<path d="M3695 730 c-3 -5 -1 -10 4 -10 6 0 11 5 11 10 0 6 -2 10 -4 10 -3 0
-8 -4 -11 -10z"/>
<path d="M1034 706 c-8 -22 -2 -27 16 -16 12 7 12 12 3 21 -10 10 -14 9 -19
-5z"/>
<path d="M1336 703 c2 -7 -4 -19 -12 -28 -9 -8 -12 -15 -7 -15 5 0 14 5 21 12
8 8 15 8 27 -2 8 -7 18 -10 21 -7 8 7 -21 37 -34 37 -6 0 -12 3 -15 8 -2 4 -2
2 -1 -5z"/>
<path d="M860 700 c-9 -6 -10 -10 -3 -10 6 0 15 5 18 10 8 12 4 12 -15 0z"/>
<path d="M947 703 c-4 -3 -7 -11 -7 -17 0 -6 5 -5 12 2 6 6 9 14 7 17 -3 3 -9
2 -12 -2z"/>
<path d="M1690 700 c-13 -8 -12 -10 3 -10 9 0 17 5 17 10 0 12 -1 12 -20 0z"/>
<path d="M992 592 c-23 -22 -42 -44 -42 -50 0 -16 8 -15 26 3 9 8 13 15 10 15
-10 0 30 36 47 43 17 7 24 27 9 27 -5 0 -27 -17 -50 -38z"/>
<path d="M1160 610 c0 -5 4 -10 9 -10 6 0 13 5 16 10 3 6 -1 10 -9 10 -9 0
-16 -4 -16 -10z"/>
<path d="M1640 600 c-13 -8 -13 -10 2 -10 9 0 20 5 23 10 8 13 -5 13 -25 0z"/>
<path d="M1760 586 c0 -18 -16 -21 -25 -6 -9 15 -55 12 -55 -4 0 -7 -9 -25
-21 -40 -11 -14 -16 -26 -11 -26 6 0 13 6 15 13 4 10 6 10 6 0 1 -15 37 -17
46 -3 4 6 11 8 16 5 5 -4 9 3 9 14 0 18 4 20 31 14 29 -6 31 -5 20 15 -15 28
-31 37 -31 18z m-44 -43 c-11 -11 -48 -14 -41 -3 3 5 16 10 27 10 12 0 18 -3
14 -7z"/>
<path d="M1160 570 c0 -5 5 -10 11 -10 5 0 7 5 4 10 -3 6 -8 10 -11 10 -2 0
-4 -4 -4 -10z"/>
<path d="M1295 570 c3 -5 14 -10 23 -10 15 0 15 2 2 10 -20 13 -33 13 -25 0z"/>
<path d="M1010 560 c0 -5 7 -10 16 -10 8 0 12 5 9 10 -3 6 -10 10 -16 10 -5 0
-9 -4 -9 -10z"/>
<path d="M1590 556 c0 -9 8 -12 27 -8 25 5 25 6 8 13 -29 11 -35 10 -35 -5z"/>
<path d="M374 533 c-3 -10 -14 -34 -25 -54 -24 -47 -24 -63 2 -80 21 -14 37
-89 19 -89 -5 0 -2 -14 7 -31 14 -28 14 -32 -3 -51 -16 -18 -17 -21 -2 -15 30
11 29 -7 -2 -19 -38 -16 -63 -8 -57 18 4 15 1 18 -14 13 -14 -5 -19 -2 -19 12
0 15 -2 16 -10 3 -6 -10 -10 -11 -10 -2 0 6 -7 12 -15 12 -8 0 -15 -4 -15 -10
0 -5 -7 -10 -16 -10 -8 0 -13 4 -9 9 3 6 -2 14 -11 19 -9 5 -15 12 -15 15 1 4
-1 7 -4 7 -3 0 -9 0 -15 0 -5 0 -21 -18 -35 -40 -25 -40 -33 -66 -16 -55 5 3
12 1 16 -5 3 -5 1 -10 -5 -10 -6 0 -8 -10 -4 -25 5 -21 3 -24 -12 -19 -18 5
-18 5 -1 -9 10 -8 28 -12 43 -9 20 4 25 2 19 -8 -4 -7 -2 -16 6 -21 10 -6 10
-9 2 -9 -7 0 -18 -10 -24 -23 -10 -19 -10 -20 2 -11 8 6 23 14 33 18 16 5 17
4 6 -9 -10 -12 -10 -15 4 -15 9 0 16 -7 16 -15 0 -13 26 -15 170 -15 107 0
170 4 170 10 0 6 5 10 11 10 5 0 7 -5 3 -12 -5 -8 2 -9 26 -5 18 4 36 7 41 7
5 0 9 11 9 25 0 28 -11 30 -55 11 -38 -16 -56 -3 -41 31 6 13 17 21 24 18 8
-3 19 -5 25 -5 6 0 2 -7 -9 -15 -19 -14 -19 -14 2 -15 20 0 68 29 49 30 -5 0
-3 5 5 10 11 7 7 10 -19 10 -19 0 -31 3 -27 7 8 8 49 13 121 14 44 1 47 2 25
11 -24 9 -111 5 -144 -8 -10 -4 -16 -1 -16 9 0 20 22 35 28 19 4 -12 32 -17
32 -7 0 19 -27 32 -48 24 -14 -5 -21 -5 -18 0 4 5 0 12 -6 14 -8 3 -6 6 5 6 9
1 17 5 17 10 0 5 6 11 13 14 6 2 0 2 -15 0 -33 -5 -37 4 -6 16 18 6 12 9 -30
15 -29 4 -57 4 -63 0 -8 -4 -7 0 0 14 8 15 8 23 0 28 -8 4 -6 10 7 17 12 7 19
7 22 -1 2 -6 10 -8 18 -5 11 4 12 8 4 13 -8 5 -2 10 14 14 14 3 26 11 26 16 0
6 -9 6 -25 0 -15 -6 -25 -6 -25 0 0 5 -9 8 -20 7 -11 -1 -20 -5 -20 -9 0 -4
-11 -8 -25 -8 -14 0 -25 5 -25 11 0 6 6 9 14 6 17 -7 31 22 17 36 -7 7 -15 6
-26 -3 -13 -11 -14 -10 -9 4 6 14 -5 21 -28 17 -4 0 -5 6 -2 14 4 8 12 15 20
15 18 0 18 14 -1 30 -12 10 -15 9 -16 -6 0 -18 -1 -18 -9 1 -13 31 -12 33 30
40 22 4 40 11 40 16 0 6 -15 7 -35 3 -28 -5 -35 -3 -35 10 0 21 -19 20 -26 -1z
m96 -222 c0 -5 -7 -11 -15 -15 -15 -5 -20 5 -8 17 9 10 23 9 23 -2z m27 -93
c-3 -8 -6 -5 -6 6 -1 11 2 17 5 13 3 -3 4 -12 1 -19z m-247 -18 c0 -11 -7 -20
-15 -20 -13 0 -14 4 -5 20 6 11 13 20 15 20 3 0 5 -9 5 -20z m140 -35 c10 -12
10 -15 -3 -15 -8 0 -23 3 -32 6 -13 5 -14 8 -3 15 18 12 24 11 38 -6z m14 -38
c-5 -14 -44 -41 -50 -34 -6 5 35 47 46 47 5 0 7 -6 4 -13z m-40 -62 c-22 -16
-44 -19 -44 -6 0 9 21 18 49 20 10 1 9 -4 -5 -14z m36 -4 c0 -5 -7 -12 -16
-15 -14 -5 -15 -4 -4 9 14 17 20 19 20 6z m115 -1 c-3 -5 -12 -10 -18 -10 -7
0 -6 4 3 10 19 12 23 12 15 0z m105 -30 c-8 -5 -22 -9 -30 -9 -10 0 -8 3 5 9
27 12 43 12 25 0z"/>
<path d="M1276 542 c-4 -7 -1 -14 8 -17 9 -3 23 -7 32 -10 8 -3 12 0 9 5 -3 6
-12 10 -20 10 -7 0 -15 5 -17 12 -3 9 -6 9 -12 0z"/>
<path d="M1365 520 c3 -5 14 -10 23 -10 15 0 15 2 2 10 -20 13 -33 13 -25 0z"/>
<path d="M1584 515 c-17 -13 -17 -14 -2 -15 9 0 20 5 23 11 11 17 0 20 -21 4z"/>
<path d="M1203 513 c9 -2 23 -2 30 0 6 3 -1 5 -18 5 -16 0 -22 -2 -12 -5z"/>
<path d="M990 491 c0 -6 4 -12 8 -15 5 -3 9 1 9 9 0 8 -4 15 -9 15 -4 0 -8 -4
-8 -9z"/>
<path d="M1038 472 c-16 -17 -16 -18 0 -18 10 0 26 8 37 18 18 18 18 18 -1 17
-10 0 -27 -8 -36 -17z"/>
<path d="M3815 482 c-5 -4 -16 -15 -24 -25 -12 -15 -12 -17 0 -12 8 3 20 14
27 25 13 22 13 24 -3 12z"/>
<path d="M1220 470 c0 -4 14 -13 31 -19 39 -13 42 -14 35 -2 -8 13 -66 32 -66
21z"/>
<path d="M1626 455 c-15 -14 -38 -28 -51 -31 -13 -3 -26 -12 -29 -20 -7 -17
-1 -18 24 -2 26 16 40 0 16 -18 -11 -7 -17 -17 -13 -20 5 -6 97 63 97 73 0 2
-10 1 -22 -3 l-23 -6 24 26 c31 33 13 34 -23 1z"/>
<path d="M970 444 c0 -14 3 -14 15 -4 8 7 15 14 15 16 0 2 -7 4 -15 4 -8 0
-15 -7 -15 -16z"/>
<path d="M1145 450 c-4 -6 11 -10 36 -10 48 0 49 4 2 13 -18 4 -35 2 -38 -3z"/>
<path d="M1796 433 c-6 -14 -5 -15 5 -6 7 7 10 15 7 18 -3 3 -9 -2 -12 -12z"/>
<path d="M446 431 c-18 -7 -18 -8 -2 -14 19 -8 36 -1 36 14 0 10 -7 11 -34 0z"/>
<path d="M1240 430 c0 -5 5 -10 11 -10 5 0 7 5 4 10 -3 6 -8 10 -11 10 -2 0
-4 -4 -4 -10z"/>
<path d="M1175 420 c3 -5 16 -10 28 -10 18 0 19 2 7 10 -20 13 -43 13 -35 0z"/>
<path d="M1034 386 c-35 -16 -57 -39 -27 -30 16 5 16 4 -1 -10 -15 -12 -16
-16 -5 -17 9 0 7 -4 -6 -10 -15 -7 -10 -8 18 -4 20 3 37 2 37 -3 0 -5 20 -6
44 -2 65 10 145 -20 146 -53 0 -4 -9 -3 -21 3 -11 6 -30 10 -42 7 -22 -3 -22
-4 3 -15 l25 -11 -25 -1 c-20 0 -22 -2 -10 -10 8 -5 26 -10 40 -10 20 0 22 2
10 11 -11 8 -7 9 19 5 l33 -6 -16 25 c-9 14 -14 29 -12 34 6 8 -10 16 -86 40
-28 9 -41 9 -56 0 -30 -19 -69 -4 -69 26 0 16 5 25 16 25 9 0 23 5 31 10 24
15 -8 12 -46 -4z"/>
<path d="M900 362 c0 -6 -10 -12 -22 -14 -14 -2 -19 -6 -12 -10 13 -9 52 17
41 28 -4 4 -7 2 -7 -4z"/>
<path d="M1497 356 c-3 -8 0 -17 8 -19 7 -3 12 0 11 8 -3 22 -13 27 -19 11z"/>
<path d="M1080 348 c-14 -6 -20 -12 -14 -14 6 -3 24 2 40 11 33 17 13 19 -26
3z"/>
<path d="M778 343 c7 -3 16 -2 19 1 4 3 -2 6 -13 5 -11 0 -14 -3 -6 -6z"/>
<path d="M920 320 c-8 -5 -11 -12 -7 -16 4 -4 13 -2 19 4 15 15 7 24 -12 12z"/>
<path d="M3740 295 c-7 -9 -11 -17 -9 -20 3 -2 10 5 17 15 14 24 10 26 -8 5z"/>
<path d="M575 290 c-19 -8 -18 -9 4 -9 13 -1 30 -9 38 -18 13 -16 13 -16 4 3
-6 12 -7 24 -4 28 9 9 -18 6 -42 -4z"/>
<path d="M946 288 c3 -4 9 -8 15 -8 5 0 9 4 9 8 0 5 -7 9 -15 9 -8 0 -12 -4
-9 -9z"/>
<path d="M1060 290 c-13 -8 -13 -10 2 -10 9 0 20 5 23 10 8 13 -5 13 -25 0z"/>
<path d="M1135 290 c28 -12 45 -12 45 0 0 6 -15 10 -32 9 -28 0 -30 -2 -13 -9z"/>
<path d="M200 274 c0 -8 5 -12 10 -9 6 3 10 10 10 16 0 5 -4 9 -10 9 -5 0 -10
-7 -10 -16z"/>
<path d="M260 269 c0 -5 5 -7 10 -4 6 3 10 8 10 11 0 2 -4 4 -10 4 -5 0 -10
-5 -10 -11z"/>
<path d="M886 263 c-6 -14 -5 -15 5 -6 7 7 10 15 7 18 -3 3 -9 -2 -12 -12z"/>
<path d="M965 261 c-3 -5 -1 -12 4 -15 5 -3 11 1 15 9 6 16 -9 21 -19 6z"/>
<path d="M1098 262 c9 -6 -1 -13 -30 -21 -30 -9 -43 -10 -46 -2 -2 6 -8 11
-14 11 -5 0 -8 -6 -5 -12 2 -7 -8 -21 -22 -32 -20 -14 -21 -17 -6 -12 18 5 17
4 -3 -14 -13 -11 -22 -25 -20 -32 2 -10 16 -8 58 10 47 20 50 22 20 18 -30 -5
-32 -4 -15 6 19 11 19 11 0 18 -28 10 74 39 112 32 l28 -5 -24 22 c-13 11 -29
21 -35 21 -7 0 -6 -4 2 -8z"/>
<path d="M755 250 c-3 -5 -1 -10 4 -10 6 0 11 5 11 10 0 6 -2 10 -4 10 -3 0
-8 -4 -11 -10z"/>
<path d="M796 233 c5 -5 12 -12 16 -18 4 -6 8 -2 8 8 0 9 -7 17 -17 17 -9 0
-12 -3 -7 -7z"/>
<path d="M705 220 c-3 -5 1 -10 10 -10 9 0 13 5 10 10 -3 6 -8 10 -10 10 -2 0
-7 -4 -10 -10z"/>
<path d="M890 214 c-19 -7 -29 -13 -22 -13 6 -1 12 -8 12 -16 0 -8 -6 -16 -12
-17 -7 0 -18 -2 -24 -2 -18 -2 -44 -27 -39 -37 3 -4 12 -6 20 -2 9 3 15 -1 15
-8 0 -10 3 -10 12 -1 7 7 18 12 26 12 12 0 12 -3 1 -17 -11 -15 -10 -14 9 1
27 24 29 40 2 33 -11 -3 -20 -2 -20 3 0 13 39 19 43 6 3 -8 8 -8 17 1 18 16 2
35 -23 28 -21 -6 -21 -5 2 15 31 26 25 31 -19 14z m-43 -70 c-3 -3 -12 -4 -19
-1 -8 3 -5 6 6 6 11 1 17 -2 13 -5z"/>
<path d="M1065 210 l-20 -9 20 0 c11 0 27 4 35 9 13 9 13 10 0 9 -8 0 -24 -4
-35 -9z"/>
<path d="M1140 211 c0 -5 7 -11 15 -15 8 -3 15 -1 15 3 0 5 -7 11 -15 15 -8 3
-15 1 -15 -3z"/>
<path d="M675 190 c3 -5 8 -10 11 -10 2 0 4 5 4 10 0 6 -5 10 -11 10 -5 0 -7
-4 -4 -10z"/>
<path d="M1186 191 c-4 -5 -23 -7 -44 -5 -27 4 -33 3 -22 -5 8 -5 36 -13 64
-17 30 -4 58 -15 71 -28 21 -21 41 -24 125 -17 8 1 -5 10 -28 21 -27 12 -54
17 -69 14 -16 -5 -31 0 -46 13 -32 29 -45 35 -51 24z"/>
<path d="M3661 167 c-13 -21 -12 -21 5 -5 10 10 16 20 13 22 -3 3 -11 -5 -18
-17z"/>
<path d="M1470 164 c0 -8 5 -12 10 -9 6 3 10 10 10 16 0 5 -4 9 -10 9 -5 0
-10 -7 -10 -16z"/>
<path d="M755 160 c4 -6 11 -8 16 -5 14 9 11 15 -7 15 -8 0 -12 -5 -9 -10z"/>
<path d="M1390 149 c0 -5 5 -7 10 -4 6 3 10 8 10 11 0 2 -4 4 -10 4 -5 0 -10
-5 -10 -11z"/>
<path d="M1006 129 c4 -7 0 -9 -14 -5 -11 4 -23 2 -27 -3 -4 -7 1 -8 12 -4 16
6 16 5 4 -10 -12 -15 -11 -17 3 -17 9 0 16 -4 16 -10 0 -15 26 -12 40 5 10 12
10 15 -1 15 -8 1 -1 8 14 16 35 19 30 28 -7 15 -17 -7 -26 -7 -26 -1 0 6 -5
10 -11 10 -5 0 -7 -5 -3 -11z"/>
<path d="M1495 130 c-3 -5 -2 -10 4 -10 5 0 13 5 16 10 3 6 2 10 -4 10 -5 0
-13 -4 -16 -10z"/>
<path d="M740 108 c0 -5 9 -8 19 -8 24 0 36 -16 19 -23 -8 -3 -6 -6 5 -6 9 -1
17 -5 17 -11 0 -15 -27 -12 -44 5 -9 9 -17 11 -21 5 -3 -5 -18 -9 -33 -9 -21
1 -22 2 -7 6 30 7 43 23 19 23 -11 0 -26 6 -33 13 -11 10 -13 9 -7 -1 4 -7 1
-15 -9 -18 -14 -6 -14 -8 1 -25 9 -11 30 -19 45 -19 22 0 27 -4 22 -17 -5 -11
-3 -14 6 -8 8 4 17 2 22 -6 6 -9 12 -10 17 -4 11 16 47 41 39 29 -4 -7 0 -15
9 -18 22 -9 24 -8 18 9 -4 9 1 17 10 20 9 3 24 8 34 11 9 4 25 8 35 9 10 1 23
8 30 15 10 10 8 12 -10 7 -25 -6 -33 17 -10 26 8 4 9 6 0 6 -6 1 -19 -6 -28
-15 -15 -15 -83 -54 -93 -54 -2 0 6 9 19 21 l24 20 -30 -5 c-27 -6 -28 -5 -12
8 16 13 14 14 -28 18 -25 2 -45 0 -45 -4z"/>
<path d="M1045 75 c-17 -14 -85 -38 -110 -40 -5 0 -16 -4 -24 -9 -20 -13 5
-26 50 -26 35 0 66 20 52 33 -7 7 -1 9 46 11 16 0 27 -2 25 -6 -2 -3 2 -9 8
-12 7 -3 2 -4 -12 -2 -14 2 -19 1 -12 -1 6 -3 12 -8 12 -13 0 -5 30 -9 68 -8
37 0 61 2 54 5 -17 6 13 42 37 44 21 2 -53 19 -99 24 -19 1 -44 6 -55 9 -11 3
-29 -1 -40 -9z m135 -56 c0 -14 -17 -10 -23 5 -4 10 -1 13 9 9 7 -3 14 -9 14
-14z m-40 7 c0 -3 -4 -8 -10 -11 -5 -3 -10 -1 -10 4 0 6 5 11 10 11 6 0 10 -2
10 -4z"/>
<path d="M1350 86 c0 -2 7 -6 15 -10 8 -3 15 -1 15 4 0 6 -7 10 -15 10 -8 0
-15 -2 -15 -4z"/>
<path d="M1445 69 c-4 -6 -5 -12 -2 -15 2 -3 7 2 10 11 7 17 1 20 -8 4z"/>
<path d="M27 33 c-4 -3 -7 -13 -7 -21 0 -12 3 -12 15 -2 8 7 15 16 15 21 0 11
-14 12 -23 2z"/>
<path d="M1375 19 l-30 -19 26 0 c15 0 32 6 38 14 19 22 -1 25 -34 5z"/>
<path d="M660 22 c0 -5 14 -9 30 -10 17 0 28 4 25 9 -8 11 -55 12 -55 1z"/>
<path d="M85 10 c-3 -5 -1 -10 4 -10 6 0 11 5 11 10 0 6 -2 10 -4 10 -3 0 -8
-4 -11 -10z"/>
<path d="M3417 9 c7 -7 15 -10 18 -7 3 3 -2 9 -12 12 -14 6 -15 5 -6 -5z"/>
</g>
</svg>
